<?xml version="1.0" encoding="UTF-8" standalone="no"?>
<!-- Created with Inkscape (http://www.inkscape.org/) -->

<svg
   width="1000.7808"
   height="302.3327"
   viewBox="0 0 271.2116 81.932161"
   version="1.1"
   id="svg11079"
   inkscape:version="1.1.2 (0a00cf5339, 2022-02-04)"
   sodipodi:docname="header.svg"
   inkscape:export-filename="/home/dave/code/homepage/public/img/header.png"
   inkscape:export-xdpi="95.93"
   inkscape:export-ydpi="95.93"
   xmlns:inkscape="http://www.inkscape.org/namespaces/inkscape"
   xmlns:sodipodi="http://sodipodi.sourceforge.net/DTD/sodipodi-0.dtd"
   xmlns:xlink="http://www.w3.org/1999/xlink"
   xmlns="http://www.w3.org/2000/svg"
   xmlns:svg="http://www.w3.org/2000/svg">
  <sodipodi:namedview
     id="namedview159"
     pagecolor="#000000"
     bordercolor="#666666"
     borderopacity="1.0"
     inkscape:pageshadow="2"
     inkscape:pageopacity="0"
     inkscape:pagecheckerboard="true"
     showgrid="false"
     inkscape:zoom="1.0651683"
     inkscape:cx="500.39041"
     inkscape:cy="151.14982"
     inkscape:window-width="1920"
     inkscape:window-height="1011"
     inkscape:window-x="0"
     inkscape:window-y="32"
     inkscape:window-maximized="1"
     inkscape:current-layer="layer1"
     fit-margin-top="0"
     fit-margin-left="0"
     fit-margin-right="0"
     fit-margin-bottom="0" />
  <defs
     id="defs11076">
    <inkscape:path-effect
       effect="sketch"
       id="path-effect2682"
       is_visible="true"
       lpeversion="1"
       nbiter_approxstrokes="5"
       strokelength="5"
       strokelength_rdm="0.3;1"
       strokeoverlap="0.3"
       strokeoverlap_rdm="0.3;1"
       ends_tolerance="0.1;1"
       parallel_offset="0.2;1"
       tremble_size="0.2;1"
       tremble_frequency="1"
       nbtangents="0"
       tgt_places_rdmness="1;1"
       tgtscale="10"
       tgtlength="100"
       tgtlength_rdm="0.3;1" />
    <pattern
       patternUnits="userSpaceOnUse"
       width="81.918368"
       height="45.427179"
       patternTransform="translate(226.90333,3016.4755)"
       id="pattern15680">
      <circle
         style="fill:#ffffff"
         id="circle15652"
         cx="59.389317"
         cy="43.427181"
         r="2" />
      <circle
         style="fill:#ffffff"
         id="circle15654"
         cx="2"
         cy="18.480314"
         r="2" />
      <circle
         style="fill:#ffffff"
         id="circle15656"
         cx="80.918365"
         cy="1"
         r="1" />
    </pattern>
  </defs>
  <g
     inkscape:label="Layer 1"
     inkscape:groupmode="layer"
     id="layer1"
     transform="translate(30.569216,-104.31162)">
    <g
       id="g2759"
       inkscape:label="Space"
       transform="translate(-81.656446,-758.67179)">
      <g
         id="g18982"
         inkscape:label="Stars">
        <rect
           style="fill:url(#pattern15680)"
           width="81.918365"
           height="45.427177"
           x="226.90334"
           y="3016.4756"
           id="rect15685"
           transform="matrix(0.26458334,0,0,0.26458334,19.541666,77.541666)" />
        <use
           id="use4467"
           inkscape:spray-origin="#rect15685"
           xlink:href="#rect15685"
           x="0"
           y="0"
           width="100%"
           height="100%"
           transform="translate(-24.588744,11.074449)"
           style="opacity:0.5" />
        <use
           id="use4471"
           inkscape:spray-origin="#rect15685"
           xlink:href="#rect15685"
           x="0"
           y="0"
           width="100%"
           height="100%"
           transform="translate(-18.530293,18.088408)" />
        <use
           id="use4475"
           inkscape:spray-origin="#rect15685"
           xlink:href="#rect15685"
           x="0"
           y="0"
           width="100%"
           height="100%"
           transform="translate(-17.723116,10.676202)"
           style="opacity:0.5" />
        <use
           id="use4481"
           inkscape:spray-origin="#rect15685"
           xlink:href="#rect15685"
           x="0"
           y="0"
           width="100%"
           height="100%"
           transform="translate(-1.8287086,-4.2158273)" />
        <use
           id="use4489"
           inkscape:spray-origin="#rect15685"
           xlink:href="#rect15685"
           x="0"
           y="0"
           width="100%"
           height="100%"
           transform="translate(9.4105365,-4.9628052)"
           style="opacity:0.5" />
        <use
           id="use4497"
           inkscape:spray-origin="#rect15685"
           xlink:href="#rect15685"
           x="0"
           y="0"
           width="100%"
           height="100%"
           transform="translate(16.441955,-12.667445)" />
        <use
           id="use4505"
           inkscape:spray-origin="#rect15685"
           xlink:href="#rect15685"
           x="0"
           y="0"
           width="100%"
           height="100%"
           transform="translate(27.494683,-3.2014392)"
           style="opacity:0.5" />
        <use
           id="use4509"
           inkscape:spray-origin="#rect15685"
           xlink:href="#rect15685"
           x="0"
           y="0"
           width="100%"
           height="100%"
           transform="translate(48.174597,-8.8291351)" />
        <use
           id="use4513"
           inkscape:spray-origin="#rect15685"
           xlink:href="#rect15685"
           x="0"
           y="0"
           width="100%"
           height="100%"
           transform="translate(45.107252,1.4028359)"
           style="opacity:0.5" />
        <use
           id="use4517"
           inkscape:spray-origin="#rect15685"
           xlink:href="#rect15685"
           x="0"
           y="0"
           width="100%"
           height="100%"
           transform="translate(67.717188,-6.6804848)" />
        <use
           id="use4521"
           inkscape:spray-origin="#rect15685"
           xlink:href="#rect15685"
           x="0"
           y="0"
           width="100%"
           height="100%"
           transform="translate(67.921581,-5.2178205)"
           style="opacity:0.5" />
        <use
           id="use4525"
           inkscape:spray-origin="#rect15685"
           xlink:href="#rect15685"
           x="0"
           y="0"
           width="100%"
           height="100%"
           transform="translate(73.367474,9.6578426)" />
        <use
           id="use4529"
           inkscape:spray-origin="#rect15685"
           xlink:href="#rect15685"
           x="0"
           y="0"
           width="100%"
           height="100%"
           transform="translate(91.410089,12.034374)"
           style="opacity:0.5" />
        <use
           id="use4533"
           inkscape:spray-origin="#rect15685"
           xlink:href="#rect15685"
           x="0"
           y="0"
           width="100%"
           height="100%"
           transform="translate(94.925483,13.0871)" />
        <use
           id="use4537"
           inkscape:spray-origin="#rect15685"
           xlink:href="#rect15685"
           x="0"
           y="0"
           width="100%"
           height="100%"
           transform="translate(99.582761,17.257203)"
           style="opacity:0.5" />
        <use
           id="use4541"
           inkscape:spray-origin="#rect15685"
           xlink:href="#rect15685"
           x="0"
           y="0"
           width="100%"
           height="100%"
           transform="translate(120.80592,10.68814)" />
        <use
           id="use4545"
           inkscape:spray-origin="#rect15685"
           xlink:href="#rect15685"
           x="0"
           y="0"
           width="100%"
           height="100%"
           transform="translate(126.42079,5.54332)"
           style="opacity:0.5" />
        <use
           id="use4549"
           inkscape:spray-origin="#rect15685"
           xlink:href="#rect15685"
           x="0"
           y="0"
           width="100%"
           height="100%"
           transform="translate(140.13524,21.327831)" />
        <use
           id="use4553"
           inkscape:spray-origin="#rect15685"
           xlink:href="#rect15685"
           x="0"
           y="0"
           width="100%"
           height="100%"
           transform="translate(149.4529,11.545346)"
           style="opacity:0.5" />
        <use
           id="use4557"
           inkscape:spray-origin="#rect15685"
           xlink:href="#rect15685"
           x="0"
           y="0"
           width="100%"
           height="100%"
           transform="translate(166.26022,1.8511658)" />
        <use
           id="use4561"
           inkscape:spray-origin="#rect15685"
           xlink:href="#rect15685"
           x="0"
           y="0"
           width="100%"
           height="100%"
           transform="translate(180.40668,-0.30886032)"
           style="opacity:0.5" />
        <use
           id="use4565"
           inkscape:spray-origin="#rect15685"
           xlink:href="#rect15685"
           x="0"
           y="0"
           width="100%"
           height="100%"
           transform="translate(188.00337,7.4096785)" />
        <use
           id="use4569"
           inkscape:spray-origin="#rect15685"
           xlink:href="#rect15685"
           x="0"
           y="0"
           width="100%"
           height="100%"
           transform="translate(202.81874,-3.1455538)"
           style="opacity:0.5" />
        <use
           id="use4573"
           inkscape:spray-origin="#rect15685"
           xlink:href="#rect15685"
           x="0"
           y="0"
           width="100%"
           height="100%"
           transform="translate(199.74589,-4.6240454)" />
        <use
           id="use4577"
           inkscape:spray-origin="#rect15685"
           xlink:href="#rect15685"
           x="0"
           y="0"
           width="100%"
           height="100%"
           transform="translate(205.43792,-5.7721886)"
           style="opacity:0.5" />
        <path
           style="fill:#ffffff"
           id="path2046"
           transform="matrix(0.22663385,-0.13084712,0.13084712,0.22663385,-343.98978,244.10379)"
           d="m 395.52608,3050.6765 -9.30797,-8.3418 -3.89003,11.8782 2.57023,-12.2318 -12.23184,2.5702 11.8782,-3.89 -8.34181,-9.308 9.30797,8.3418 3.89004,-11.8782 -2.57024,12.2318 12.23185,-2.5702 -11.87821,3.89 z" />
        <path
           style="fill:#ffffff"
           id="path2152"
           transform="matrix(0.16323309,-0.09424267,0.09424267,0.16323309,-136.09564,386.10456)"
           d="m 280.52148,3254.844 -14.71467,10.057 7.71478,16.0669 -10.05699,-14.7147 -16.06695,7.7148 14.71467,-10.057 -7.71478,-16.0669 10.05699,14.7147 z" />
      </g>
      <g
         id="g1533"
         inkscape:label="Galaxy"
         transform="matrix(0.61458229,0.35482925,-0.35482925,0.61458229,351.54361,349.53386)">
        <path
           style="opacity:0.25;fill:#ffffff"
           d="m 266.15594,707.91793 c -6.47256,-0.3112 -13.23191,0.59913 -18.71649,2.55863 -6.59421,2.35595 -10.83989,5.79191 -12.0332,9.75586 -0.59665,1.98198 -0.3578,4.07917 0.73242,5.9961 1.09022,1.91692 2.98842,3.66739 5.68555,5.19921 9.63663,5.47311 27.22578,6.64031 39.27539,2.22071 5.31123,-1.94808 8.7584,-4.77354 9.68555,-8.08399 0.46357,-1.65522 0.22157,-3.40915 -0.72071,-4.99023 -0.94227,-1.58109 -2.54159,-3.00533 -4.79101,-4.24219 -7.8177,-4.29864 -21.7748,-5.18411 -31.24805,-1.56445 -4.03098,1.54021 -6.68379,3.75831 -7.33984,6.41992 -0.32803,1.33081 -0.0816,2.74348 0.71484,3.98633 0.79647,1.24285 2.1032,2.33741 3.90625,3.27734 5.98653,3.12079 16.32433,3.73374 23.2207,0.90039 2.75708,-1.13274 4.62549,-2.75686 4.99805,-4.77929 0.18628,-1.01122 -0.0774,-2.07754 -0.73242,-2.97657 -0.65504,-0.89902 -1.66747,-1.65844 -3.02735,-2.29687 -4.12697,-1.93754 -11.7916,-1.73991 -15.20898,-0.21485 -1.52684,0.68138 -2.50177,1.20225 -3.6733,2.84159 -2.22942,3.11968 3.56906,5.5055 7.68104,4.39673 8.83628,-2.38265 4.65111,-6.22308 -2.19832,-4.93824 7.73795,-4.54206 15.5117,2.95924 6.59087,6.44191 -6.21077,2.42467 -11.53352,1.71057 -16.78896,-1.0291 -1.60083,-0.83451 -2.6367,-1.75416 -3.19727,-2.6289 -0.56056,-0.87474 -0.68658,-1.6831 -0.47656,-2.53516 0.42004,-1.70412 2.48239,-3.70362 6.19727,-5.12304 8.78319,-3.356 22.62282,-2.42736 29.68359,1.45507 2.04503,1.12448 3.3745,2.3622 4.08984,3.5625 0.71535,1.20031 0.85804,2.34741 0.52539,3.53516 -0.6653,2.37551 -3.53454,5.00251 -8.5332,6.83594 -11.3799,4.17396 -28.8498,2.94198 -37.71289,-2.0918 -2.49134,-1.41495 -4.11513,-2.97162 -4.98437,-4.5 -0.86925,-1.52838 -1.02843,-3.01533 -0.57032,-4.53711 0.91624,-3.04356 4.59331,-6.29212 10.87696,-8.53711 13.96821,-4.9905 30.25933,-3.8257 45.74218,2.73047 -11.00715,-6.16846 -21.12604,-6.73116 -27.65265,-7.04496 z"
           id="path16979" />
        <path
           id="path1531"
           style="opacity:0.5;fill:#ffffff"
           d="m 265.90975,726.66714 c 1.9306,-0.53798 5.46361,-2.41647 3.65091,-4.73466 -2.07605,-1.67522 -5.20659,-1.59466 -7.51413,-0.51038 4.13695,-1.71951 9.79177,0.56658 6.51966,3.16932 -4.16136,2.88747 -9.59211,2.54334 -14.30882,1.48625 -2.11014,-0.61502 -4.48526,-2.26575 -4.85197,-4.34461 0.23889,2.9559 3.35488,4.45739 5.92279,5.06376 3.06292,0.55913 6.26094,0.70184 9.33974,0.19037 0.4187,-0.0868 0.83413,-0.19245 1.24182,-0.32 z m 0.24045,-11.80437 c -4.22077,0.22697 -8.67889,0.73398 -12.35184,2.99503 -1.18973,0.79414 -3.05695,2.1493 -2.57693,3.66578 0.26516,-2.4707 2.97101,-3.37426 4.9217,-4.26806 4.12197,-1.68757 8.68074,-1.73946 13.06826,-1.73499 3.25659,0.28232 6.5888,0.99396 9.49158,2.53811 1.48378,0.52166 3.21244,3.15426 3.48712,3.5458 -1.27057,-3.67713 -5.3942,-5.2447 -8.90657,-5.92816 -2.34392,-0.5132 -4.72429,-0.89271 -7.13332,-0.81351 z m 1.47243,17.08144 c 3.76838,-0.9204 7.68548,-2.05338 10.76687,-4.51029 1.39478,-1.29636 2.97427,-3.28072 2.09725,-5.25467 0.55587,2.96599 -2.24107,4.95047 -4.48524,6.2173 -3.44443,1.88408 -7.37322,2.69126 -11.2004,3.39711 -3.35525,0.35999 -6.7684,0.37279 -10.1365,0.22914 -1.15043,0.0158 -4.60996,-0.72748 -4.51857,-0.42665 4.90815,1.37668 10.05038,0.9958 15.06939,0.71359 0.80679,-0.0895 1.61096,-0.21017 2.4072,-0.36553 z m -28.246,-13.52383 c -1.78482,3.1173 0.21534,6.92535 3.08334,8.56636 2.33092,1.34917 4.93787,2.33321 7.60916,2.72085 -1.35247,-0.58859 -3.91653,-1.12602 -5.52909,-2.16688 -2.51108,-1.24234 -5.29375,-3.24091 -5.18817,-6.37994 0.21774,-3.8701 3.69843,-6.3446 6.8632,-7.93045 2.69991,-1.54166 5.70804,-2.34723 8.6449,-3.28688 -5.18059,0.73129 -10.2486,2.96064 -14.0995,6.53628 -0.54319,0.58247 -1.02025,1.23137 -1.38384,1.94066 z m 34.06295,-8.17801 c -4.86074,-0.19179 -9.79401,-0.33055 -14.58958,0.60948 -0.83262,0.13466 -3.5213,0.57094 -3.41617,0.84221 4.07851,-0.70614 8.23131,-1.05071 12.3677,-1.02072 4.57038,0.18648 9.21571,0.15718 13.61162,1.601 3.15267,0.75781 6.09962,2.14531 8.81504,3.90218 -3.8143,-3.50544 -9.09836,-4.54435 -14.01191,-5.5919 -0.92041,-0.15118 -1.84774,-0.26467 -2.7767,-0.34225 z m 13.31619,21.70397 c 2.8433,-2.04767 5.89928,-4.92789 5.9111,-8.69325 -0.12941,-2.47139 -1.85113,-4.56625 -3.77137,-5.936 1.64493,1.61895 3.35952,3.54968 3.23134,6.03484 -0.0379,3.87565 -3.49473,6.40891 -6.3478,8.45944 -3.26551,2.20469 -7.12703,3.30289 -10.82553,4.54134 -1.17885,0.40238 -4.81982,0.9508 -4.66333,1.22937 5.03277,-0.48825 9.7883,-2.34248 14.3595,-4.39679 0.724,-0.37381 1.4299,-0.78504 2.10609,-1.23895 z m -35.41187,4.92897 c 4.86737,0.1608 9.78632,0.34995 14.61392,-0.40242 0.83757,-0.11066 3.58457,-0.40817 3.47112,-0.67824 -5.27347,0.60045 -10.59858,0.85744 -15.89947,0.50477 -3.94686,-0.0183 -7.8521,-0.5866 -11.66656,-1.59043 -2.66127,-0.49893 -5.11279,-1.68783 -7.61796,-2.66289 3.73889,2.45665 8.2036,3.38081 12.53868,4.19641 1.49798,0.34031 3.03185,0.50654 4.56027,0.6328 z" />
      </g>
    </g>
    <g
       id="g1043"
       inkscape:label="Terrain"
       transform="translate(-81.656445,-42.40414)">
      <path
         style="fill:none;stroke:#4d4d4d;stroke-width:0.264583;stroke-miterlimit:4;stroke-dasharray:none"
         d="m 321.81718,227.79181 c -0.57691,-0.14974 -1.97158,-0.46733 -3.92341,-0.99997 m 0.88513,-0.15301 c -0.99784,-0.28115 -2.1512,-0.61811 -3.37947,-1.0029 m 0.47117,0.46365 c -1.13751,-0.3551 -2.30293,-0.77279 -3.52999,-1.28392 m 1.01653,0.39631 c -1.3657,-0.45356 -2.8794,-1.02305 -4.37228,-1.63445 m 0.92982,0.15766 c -0.73383,-0.30032 -1.44773,-0.60989 -2.13455,-0.94039 -0.53566,-0.25776 -1.0568,-0.52915 -1.56368,-0.8217 m 0.95942,0.71031 c -1.18232,-0.49598 -2.26996,-1.13795 -3.30412,-1.88165 m 0.48839,0.57493 c -1.13335,-0.57412 -2.16304,-1.19847 -3.12977,-1.88219 m 0.90263,0.27822 c -0.99228,-0.61733 -2.00594,-1.22865 -3.00135,-1.84272 m 0.55512,0.48328 c -0.69547,-0.49103 -1.39193,-1.0292 -2.06214,-1.60968 -0.53338,-0.46197 -1.04873,-0.94952 -1.53356,-1.46061 m 1.05972,0.8232 c -1.18183,-0.9735 -2.16176,-2.11458 -2.94301,-3.21615 m 0.56215,1.02487 c -0.84264,-1.06512 -1.61666,-2.21807 -2.19974,-3.46505 m 0.25562,0.69855 c -0.58033,-1.1118 -1.07055,-2.3504 -1.36057,-3.68156 0,0 -10e-6,0 -4e-5,-1e-5 -0.003,-10e-4 -0.20764,-0.0994 -0.58413,-0.27383 m 0.66134,1.13196 c -0.0438,-0.18914 -0.0838,-0.37853 -0.11967,-0.56805 0,0 -10e-6,0 -3e-5,-1e-5 -0.007,-0.003 -1.26944,-0.58563 -3.23614,-1.07463 m 1.13252,0.086 c -0.88034,-0.29658 -2.2302,-0.75035 -3.55099,-1.07897 m 0.8618,0.0207 c -1.13883,-0.43346 -2.38642,-0.83662 -3.8504,-1.25981 m 0.92636,0.3966 c -1.07418,-0.31561 -2.28769,-0.67813 -3.41162,-0.97292 -0.28254,-0.0741 -0.56654,-0.14591 -0.85123,-0.21427 m 1.19592,0.27225 c -0.10149,-0.0273 -0.20358,-0.0551 -0.30628,-0.0833 -1.41193,-0.38761 -2.87995,-0.84141 -4.40835,-1.34048 m 1.32212,0.35801 c -1.56123,-0.3382 -3.16889,-0.62874 -4.73623,-0.73927 m 1.32858,-0.0243 c -1.28169,-0.22443 -2.56294,-0.44986 -3.75598,-0.63018 -0.052,-0.008 -0.10383,-0.0156 -0.15555,-0.0233 m 0.53759,0.48185 c -0.27198,-0.0393 -0.54425,-0.0752 -0.8158,-0.10786 -1.19505,-0.14386 -2.38996,-0.22786 -3.4826,-0.27164 m 1.24732,0.0539 c -1.59659,-0.0865 -3.22828,-0.0732 -4.74644,0.0223 m 1.47037,-0.0781 c -1.46384,0.0365 -2.82263,0.31681 -4.04299,0.71287 -0.22574,0.0733 -0.44953,0.14325 -0.67224,0.20956 m 1.27408,-0.29685 c -0.232,0.0494 -0.46128,0.10155 -0.68761,0.15636 -1.34094,0.32475 -2.64541,0.5027 -3.92985,0.53817 m 1.08146,0.067 c -1.72815,0.32239 -3.28298,0.53814 -4.82363,0.65254 m 1.52385,-0.50743 c -1.50245,0.22251 -3.02607,0.33537 -4.50712,0.51275 m 1.35718,0.0603 c -1.24476,0.047 -2.43406,0.0731 -3.62388,0.0835 m 0.89131,0.11661 c -1.54764,-0.0497 -2.89558,-0.0966 -4.32907,-0.16635 m 1.03403,0.0832 c -0.80025,-0.0206 -1.57429,-0.0586 -2.32953,-0.10187 -0.49285,-0.0282 -0.98478,-0.0592 -1.46873,-0.0891 m 0.80854,0.0979 c -1.44468,-0.0451 -2.83181,-0.17891 -4.09871,-0.29769 m 0.82773,-0.26798 c -1.21383,-0.0486 -2.3561,0.008 -3.43766,0.15276 -0.48563,0.0649 -0.96284,0.148 -1.43239,0.24866 m 1.46753,0.14465 c -1.42175,0.16841 -2.70997,0.38265 -3.93396,0.80508 m 1.35193,-0.62486 c -1.09616,0.28534 -2.16991,0.6839 -3.19674,1.24716 -0.21534,0.11812 -0.43079,0.22826 -0.64603,0.3307 m 0.78983,-0.3515 c -0.0904,0.0471 -0.18091,0.0957 -0.27155,0.14579 -1.32947,0.73481 -2.75751,1.19119 -4.20522,1.4143 m 1.27062,-0.52262 c -1.56631,0.34137 -3.09305,0.34998 -4.65729,0.11892 m 1.50711,-0.0609 c -0.59025,-0.0409 -1.19619,-0.12043 -1.81336,-0.22895 -0.82387,-0.14486 -1.66352,-0.34055 -2.50637,-0.56199 m 0.71584,0.80977 c -1.43994,-0.3994 -2.79903,-1.01411 -4.16872,-1.72536 m 1.11455,-0.0806 c -1.09336,-0.51879 -2.15838,-1.0602 -3.19849,-1.62469 m 0.81157,0.8127 c -18.29555,-10.26467 17.10706,9.59801 -1.18849,-0.66665 -1.07994,-0.6051 -2.19008,-1.22391 -3.41057,-1.89391 m 1.76349,0.95749 c -1.32147,-0.79265 -2.70869,-1.6401 -4.03466,-2.45449 m 0.79816,0.0566 c -1.05196,-0.62802 -2.05542,-1.2259 -3.0431,-1.74754 m 0.71527,0.97935 c -0.36059,-0.19609 -0.71039,-0.39407 -1.05152,-0.59211 -0.94019,-0.54582 -1.81492,-1.092 -2.66612,-1.60121 m 0.84609,0.31037 c -1.47674,-0.78832 -2.84622,-1.33789 -4.16397,-1.68608 m 1.35754,0.54741 c -1.13032,-0.43453 -2.24566,-0.76819 -3.35541,-0.9842 -0.01,-0.002 -0.25843,-0.0503 -0.26828,-0.0522 m 0.76504,-0.0114 c -0.19589,-0.0381 -0.39017,-0.0743 -0.58351,-0.10821 -1.14118,-0.2002 -2.19357,-0.4212 -3.21778,-0.60649 m 0.71776,0.1221 c -1.28071,-0.23297 -2.47502,-0.41631 -3.55202,-0.57294 m 0.68018,0.32139 c -1.51037,-0.19855 -3.05935,-0.48538 -4.26033,-0.70007 m 1.07289,0.0933 c -1.80624,-0.23119 -3.37838,-0.37486 -4.85505,-0.43134 m 1.21943,-0.0351 c -0.56695,-0.0593 -1.11768,-0.10496 -1.64486,-0.13982 -0.97067,-0.0642 -1.88547,-0.0933 -2.72,-0.10118 m 1.25245,-0.01 c -1.78044,-0.0776 -3.58122,-0.0609 -5.33981,-0.0267 m 1.65744,-0.1551 c -1.50143,0.0644 -2.70906,0.10198 -4.08742,0.19633 -0.19091,0.0131 -0.38181,0.0271 -0.57288,0.0421 m 1.42083,-0.15482 c -0.2374,0.0172 -0.4759,0.0367 -0.7152,0.0585 -1.24614,0.11331 -2.55346,0.2906 -3.8456,0.51552 m 1.59985,-0.34826 c -1.3542,0.0713 -2.71292,0.19986 -4.39469,0.32459 m 0.90466,0.18855 c -1.09626,0.0837 -2.22395,0.13594 -3.446,0.14328 -0.28116,0.002 -0.56781,0.001 -0.86117,-0.002 m 0.99613,0.2995 c -0.0781,0.006 -0.15652,0.0118 -0.23513,0.0172 -1.18085,0.0814 -2.3448,0.0872 -3.67002,0.0634 m 0.8739,-0.38287 c -1.47492,-0.005 -3.12872,0.0571 -4.93857,0.0644 m 1.77684,0.3479 c -1.30275,0.0241 -2.59808,-0.0751 -4.06998,-0.23754 m 1.04494,0.029 c -1.22952,-0.076 -2.6615,-0.15267 -3.97316,-0.27284 -0.0241,-0.002 -0.0482,-0.004 -0.0723,-0.007 m 0.76933,0.0948 c -0.30387,-0.021 -0.60912,-0.0412 -0.92107,-0.0615 -0.99888,-0.0649 -1.99697,-0.0565 -2.99644,-2e-4 m 0.95501,-0.21798 c -1.53774,0.0284 -3.02382,0.1393 -4.56544,0.32105 m 1.24405,0.11825 c -1.42166,0.13558 -2.8168,0.45066 -4.17044,0.80207 m 0.95483,-0.36034 c -1.51769,0.3468 -3.04567,0.75353 -4.53275,1.22506 m 1.50345,-0.21579 c -0.0522,0.0163 -1.39515,0.43661 -1.44734,0.45295 -3.99932,1.25127 1.67025,-0.52253 -2.32907,0.72874 m 0.79727,-0.52461 c -1.13424,0.40687 -2.26549,0.91153 -3.37266,1.47858 m 0.91946,0.0352 c -1.45518,0.55058 -2.85948,1.13856 -4.33816,1.66104 m 1.4446,-0.39131 c -1.1324,0.47486 -2.21763,1.01212 -3.3044,1.57437 m 0.65255,-0.28782 c -1.07124,0.54222 -2.14617,1.05778 -3.18856,1.57014 0.003,-0.001 -0.18388,0.0905 -0.18123,0.0892 m 0.58088,-0.5215 c -0.21062,0.0982 -0.41801,0.19742 -0.62268,0.29723 -0.8803,0.42928 -1.72145,0.87556 -2.54566,1.30174 m 0.66355,-0.25879 c -1.21153,0.58651 -2.4449,1.17058 -3.76149,1.71332 m 0.83722,-0.58381 c -1.16107,0.5553 -2.26849,1.15638 -3.29148,1.72511 m 0.6334,-0.35379 c -1.41195,0.76116 -2.99404,1.42365 -4.34077,2.02209 m 1.68059,-0.87468 c -0.6061,0.28797 -1.22779,0.57378 -1.84052,0.85364 -0.72024,0.32896 -1.38364,0.62957 -2.10453,0.96303 m 1.08975,-0.29937 c -1.16667,0.47292 -2.33503,0.88022 -3.48298,1.20908 m 0.15963,-0.20743 c -1.39768,0.43845 -2.61857,0.7388 -3.79126,0.91268 m 0.94525,-0.0407 c -1.51869,0.31245 -2.9334,0.52393 -4.29342,0.57529 -0.047,0.002 -0.0941,0.004 -0.14137,0.006 m 1.35968,-0.46064 c -0.37879,0.0217 -0.7492,0.034 -1.11367,0.0356 -1.11453,0.005 -2.270688,0.11406 -3.547798,0.3048 m 1.081099,-0.0149 c -1.154801,0.0924 -2.313116,0.27564 -3.569812,0.52445 m 0.925207,0.0752 c -1.113564,0.20651 -2.338386,0.45108 -3.597041,0.7218 m 0.980175,-0.44366 c -1.142295,0.2944 -2.363481,0.6071 -3.534203,0.95217 m 0.671687,-0.30839 c -1.216603,0.32473 -2.575567,0.71888 -3.956874,1.158 m 0.965573,0.0279 c -0.353506,0.1255 -0.713009,0.24425 -1.078494,0.35872 -1.196323,0.37469 -2.448982,0.69912 -3.691505,1.05556 m 1.556238,-0.26493 c -1.154084,0.38902 -2.344,0.77466 -3.564478,1.15117 m 0.820757,-0.28258 c -1.054691,0.42116 -2.142026,0.83085 -3.181699,1.24348 m 0.450063,-0.47046 c -1.116818,0.47221 -2.241942,0.91875 -3.358151,1.4022 m 0.737611,-0.14129 c -1.294386,0.465 -2.497729,1.002 -3.682911,1.53369 m 0.984069,-0.68892 c -1.180986,0.46375 -2.417782,0.98058 -3.598767,1.44432 m 0.842978,-0.28988 c -0.05728,0.024 -0.925667,0.38961 -0.982953,0.41365 -3.931306,1.65763 1.553268,-0.65526 -2.378038,1.00237 m 0.957933,-0.29875 c -1.168521,0.48597 -2.361049,1.02877 -3.467543,1.52509 m 0.811205,-0.0314 c -1.130036,0.49877 -2.312853,1.05417 -3.313707,1.51323 m 0.36598,-0.46957 c -1.466186,0.71333 -2.742506,1.37856 -3.976479,2.11084 m 1.544721,-0.72124 c -1.076602,0.57522 -2.264201,1.1094 -3.270878,1.56451 m 0.426142,-0.20658 c -1.557022,0.77142 -2.908275,1.37443 -4.06135,1.85969 m 1.009292,-0.50047 c -1.367774,0.63318 -2.902259,1.51371 -3.474501,1.83928 m 1.057712,-0.42786 c -0.521151,0.27735 -0.973141,0.50009 -1.2276,0.62419 m 270.42234,-0.95559 c -0.75057,-0.15061 -1.80532,-0.38934 -3.51232,-0.86937 m 0.70218,0.22747 c -1.29557,-0.39321 -2.87253,-0.81584 -4.70557,-1.40358 m 1.59475,0.69793 c -1.22778,-0.34963 -2.49272,-0.803 -3.94593,-1.3912 m 0.74336,0.33857 c -1.36998,-0.52727 -3.09009,-1.17394 -4.6658,-1.89064 m 1.13308,0.54311 c -0.50164,-0.2084 -0.99934,-0.40701 -1.49863,-0.60008 -0.61788,-0.23893 -1.22791,-0.46541 -1.84364,-0.68951 m 0.9945,0.31453 c -1.54394,-0.68223 -2.94635,-1.4508 -4.36705,-2.26362 m 1.51413,0.54473 c -1.18291,-0.60714 -2.37034,-1.3984 -3.50921,-2.28081 m 0.84959,0.5934 c -1.2438,-0.81102 -2.37639,-1.57727 -3.46258,-2.38652 -0.0446,-0.0332 -0.0892,-0.0665 -0.13363,-0.0999 m 0.5831,0.5448 c -0.25865,-0.19304 -0.50842,-0.38734 -0.74904,-0.58221 -0.87636,-0.70975 -1.63638,-1.43117 -2.26689,-2.13551 m 0.70716,0.46506 c -0.82087,-0.86043 -1.59226,-1.72474 -2.26229,-2.63824 m 0.42335,0.99741 c -0.9861,-1.30689 -1.62867,-2.64796 -1.93482,-4.04907 m 0.46901,1.17091 c -0.32722,-0.79724 -0.61115,-1.62298 -0.82707,-2.48251 0,0 -1e-5,-1e-5 -4e-5,-2e-5 -0.005,-0.002 -0.50639,-0.21761 -1.42025,-0.5676 m 1.00601,0.15471 c -0.72607,-0.31349 -2.27686,-0.93732 -4.76404,-1.62178 m 1.58372,0.49578 c -1.69509,-0.59695 -2.52373,-0.94119 -4.74074,-1.76874 m 1.1896,0.42132 c -1.07138,-0.31587 -2.15241,-0.6646 -3.22684,-0.98465 m 0.71355,0.29409 c -0.61933,-0.16266 -1.22763,-0.34415 -1.84185,-0.53833 -0.81625,-0.25804 -1.62411,-0.53331 -2.41682,-0.78676 m 1.08265,0.5397 c -1.41841,-0.32517 -2.88262,-0.70878 -4.33903,-1.00507 m 0.9564,0.21644 c -1.17737,-0.29478 -2.36315,-0.54325 -3.5403,-0.80583 m 1.051,0.25139 c -1.08621,-0.1508 -1.86356,-0.27451 -2.94977,-0.42531 -0.32457,-0.0445 -0.64904,-0.0869 -0.97309,-0.12586 m 0.66505,0.0623 c -1.45606,-0.0973 -2.93314,-0.24918 -4.4362,-0.31948 m 1.52236,0.0643 c -1.48934,0.022 -2.86784,0.0523 -4.26328,0.26 m 0.86386,-0.009 c -1.26536,0.11527 -2.43983,0.27265 -3.50315,0.50902 -0.0536,0.0119 -0.10705,0.0236 -0.16032,0.035 m 0.83866,-0.0109 c -0.24153,0.0453 -0.47999,0.0974 -0.71534,0.15598 -1.37843,0.34287 -2.66368,0.65084 -4.04167,0.87238 m 1.23213,-0.66541 c -1.54833,0.25724 -3.0414,0.57134 -4.58974,0.82857 m 1.16556,-0.34997 c -1.8203,0.14585 -3.13009,0.29833 -4.61193,0.35889 m 1.52859,0.32235 c -1.30805,0.002 -2.62388,-0.0112 -3.96184,-0.10783 m 0.76773,-0.17102 c -1.59979,-0.0481 -3.27367,0.007 -4.79779,0.0833 m 1.64693,-0.29697 c -0.64224,-0.0508 -1.26989,-0.0822 -1.87894,-0.10247 -0.91856,-0.0305 -1.85067,-0.0371 -2.72929,-0.0403 m 1.12591,0.37852 c -1.61746,-0.0638 -3.00873,-0.0686 -4.29398,0.0323 m 1.07542,-0.31947 c -0.83076,-0.0227 -1.66193,0.035 -2.46857,0.15626 -0.61353,0.0923 -1.21831,0.22216 -1.80569,0.38482 m 1.0903,-0.40058 c -1.34139,0.19668 -2.53933,0.43615 -3.67351,0.86119 m 1.01116,-0.0395 c -0.91376,0.26982 -1.79921,0.61189 -2.66223,1.05601 -0.34065,0.17531 -0.68291,0.32879 -1.02639,0.46183 m 0.85533,-0.59593 c -1.36489,0.75492 -2.92506,1.13989 -4.4477,1.2362 m 1.32733,-0.16946 c -1.26095,0.22362 -2.54199,0.23565 -3.8447,0.0949 m 0.96527,0.18533 c -0.61939,-0.0443 -1.24188,-0.13024 -1.87466,-0.25073 -0.71361,-0.13588 -1.43801,-0.31521 -2.18722,-0.52775 m 0.72078,0.33429 c -1.19195,-0.31143 -2.29204,-0.74399 -3.37942,-1.23249 m 0.96337,-0.0377 c -1.19864,-0.52424 -2.44363,-1.12004 -3.76281,-1.77307 m 0.69105,0.54425 c -0.53522,-0.27735 -1.06298,-0.57445 -1.58827,-0.89041 -0.50153,-0.30166 -0.99987,-0.61993 -1.50007,-0.95424 m 1.13951,0.8229 c -1.08925,-0.64664 -2.26485,-1.38244 -3.46406,-2.15668 m 0.62739,0.32501 c -1.0395,-0.65359 -2.14827,-1.31442 -3.33071,-1.97834 m 0.50788,0.49951 c -0.78772,-0.44077 -1.55844,-0.88533 -2.31918,-1.30082 -0.52016,-0.28409 -1.03391,-0.55373 -1.54692,-0.80103 m 1.05046,0.69501 c -1.36016,-0.74315 -2.62893,-1.516 -3.82491,-2.20984 m 1.19028,0.53419 c -1.13435,-0.49536 -2.29557,-0.96701 -3.46638,-1.33228 m 0.84534,0.4304 c -0.69612,-0.21079 -1.40071,-0.39751 -2.11756,-0.54041 -0.66002,-0.13157 -1.28875,-0.25582 -1.9283,-0.3735 m 0.97472,0.17473 c -1.47592,-0.27253 -2.88971,-0.57954 -4.19966,-0.87956 m 1.37415,0.21762 c -1.5337,-0.27753 -3.0322,-0.44116 -4.35171,-0.54496 m 0.80259,0.0427 c -1.36866,-0.19366 -2.60737,-0.34713 -3.7049,-0.4682 m 0.77085,0.18795 c -1.14808,-0.13535 -2.30184,-0.25092 -3.339,-0.34773 -0.14959,-0.014 -0.29791,-0.0276 -0.44471,-0.041 m 0.989,0.007 c -0.13632,-0.0106 -0.27266,-0.0202 -0.40876,-0.0288 -1.53586,-0.0981 -3.10203,-0.0859 -4.47851,-0.0379 m 1.33038,-0.0375 c -1.28609,-0.005 -2.48393,0.0278 -3.66906,0.0865 m 1.08575,-0.008 c -1.1403,0.0293 -2.26218,0.0932 -3.36438,0.16041 -0.36412,0.0222 -0.64717,0.0399 -1.01129,0.0621 m 0.71892,-0.17625 c 8.7e-4,-7e-5 -0.15172,0.0115 -0.15084,0.0114 -1.55794,0.11761 -3.18249,0.21953 -4.91413,0.25126 0,0 0,0 0,0 0,0 -0.0104,1.9e-4 -0.0104,1.9e-4 m 1.71907,-0.0852 c -1.28578,0.10416 -2.74826,0.24181 -4.34417,0.38631 m 1.2164,-0.39228 c -0.13557,0.01 -2.62798,0.19226 -2.76355,0.20227 0.78197,-0.0569 -2.44928,0.17853 -1.66731,0.12167 m 1.32383,0.23013 c -1.25175,0.0507 -2.63051,0.0584 -4.16026,0.003 m 1.03614,0.054 c -1.27594,0.0593 -2.50559,0.0378 -3.93848,0.0173 m 0.80127,0.0795 c -1.62294,0.0227 -3.06086,-0.0983 -4.86499,-0.24327 m 1.17516,0.43259 c -0.96762,-0.009 -2.00373,-0.0893 -3.12673,-0.22134 -0.52604,-0.0618 -1.0542,-0.11443 -1.58024,-0.15403 m 1.59962,-0.3857 c -1.41943,-0.0931 -2.90977,-0.007 -4.37181,0.22302 m 1.11092,0.10521 c -1.58155,0.0783 -3.19574,0.38913 -4.65397,0.78406 m 1.48213,-0.23359 c -1.24167,0.2009 -2.48877,0.5022 -3.78299,0.86862 m 0.89633,-0.61318 c -1.18615,0.27249 -2.31366,0.66429 -3.42968,1.13358 -0.26392,0.11098 -0.52693,0.22618 -0.78976,0.34504 m 1.06619,-0.28906 c -0.10345,0.0361 -0.20695,0.0725 -0.31052,0.10913 -1.32592,0.46919 -2.66822,0.98535 -4.02798,1.56844 m 0.99256,-0.55642 c -1.20307,0.54485 -2.52085,1.08177 -3.86958,1.67717 m 1.08234,-0.60734 c -1.39545,0.58372 -2.77857,1.21846 -4.22458,1.82732 m 1.47813,-0.35317 c -1.49336,0.63267 -2.85985,1.43058 -4.27937,2.20211 m 1.10637,-1.01567 c -0.41434,0.21349 -0.83057,0.42639 -1.24618,0.63912 -0.84026,0.43011 -1.67432,0.85773 -2.51787,1.3045 m 0.92535,-0.26419 c -1.38996,0.6897 -2.71491,1.27539 -4.11373,1.75259 m 1.18788,-0.33529 c -1.18514,0.57364 -2.37478,1.22004 -3.48241,1.84505 m 1.03819,-0.36976 c -1.08698,0.5682 -2.23571,1.02841 -3.40218,1.4378 m 0.63936,-0.0915 c -0.84069,0.40289 -1.68702,0.75423 -2.53242,1.07127 -0.56207,0.21079 -1.1285,0.40817 -1.69476,0.59543 m 1.05766,-0.79775 c -1.4305,0.56089 -2.90034,1.13616 -4.36429,1.62909 m 1.20824,-0.27405 c -1.33673,0.45297 -2.67117,0.75346 -3.88128,0.8753 m 1.10073,-0.0607 c -1.39156,0.26935 -2.75686,0.44547 -4.11299,0.44442 m 1.21773,-0.17854 c -0.4693,0.0396 -0.93,0.0573 -1.38431,0.0522 -0.78545,-0.009 -1.61181,0.0152 -2.486439,0.0635 m 0.900119,-0.0242 c -1.402839,0.0794 -3.079424,0.39231 -4.967097,0.86994 m 1.543516,-0.2944 c -1.430798,0.19973 -2.982593,0.57949 -4.675321,1.05476 m 1.131616,-0.40517 c -1.428707,0.35294 -3.010418,0.77538 -4.513642,1.21674 m 1.360787,-0.19298 c -1.002017,0.31101 -1.98399,0.5947 -3.042435,0.90553 -0.576477,0.16929 -1.162445,0.3429 -1.742276,0.52146 m 1.553784,-0.68256 c -1.33131,0.38248 -2.702561,0.93146 -4.091791,1.55744 m 0.827098,-0.23065 c -1.550447,0.51356 -3.076945,1.11042 -4.700919,1.75293 m 1.423406,-0.43537 c -1.406165,0.50419 -2.728654,1.06704 -4.018751,1.65861 m 1.104349,-0.96132 c -1.151376,0.49727 -2.328149,0.93321 -3.535516,1.38442 m 0.92026,-0.13685 c -1.439244,0.59507 -2.943442,1.19544 -4.323786,1.73599 -2.96e-4,1.1e-4 -0.134692,0.0527 -0.134989,0.0528 m 0.869954,-0.59816 c -0.401036,0.1633 -0.800383,0.33545 -1.196214,0.51311 -0.877087,0.39365 -1.74662,0.81878 -2.578563,1.23583 m 1.264198,-0.25467 c -1.120473,0.48262 -2.243673,1.02398 -3.331209,1.57835 m 0.470205,-0.13885 c -1.493987,0.6857 -2.801815,1.32726 -4.075754,2.00474 m 1.277028,-0.70222 c -1.680978,0.77153 -3.07809,1.36557 -4.478212,1.8857 m 1.508491,-0.56806 c -1.262838,0.62723 -2.370856,1.20918 -3.38423,1.76695 m 0.879361,-0.47213 c -1.829045,0.90266 -3.424021,1.71541 -4.597625,2.31916 m 1.417272,-0.7755 c -1.682035,0.86281 -3.262901,1.76333 -3.399304,1.84072 m 270.775629,-0.98537 c -0.21232,-0.0534 -2.56024,-0.63106 -4.39286,-1.28084 m 0.85241,0.60614 c -1.38412,-0.32131 -2.60236,-0.74674 -4.29547,-1.36605 m 1.23476,0.3548 c -1.10778,-0.31157 -2.1552,-0.67497 -3.24884,-1.09874 m 0.609,0.004 c -1.32472,-0.49407 -2.65277,-1.05138 -3.90622,-1.7172 m 1.06928,0.70274 c -0.58854,-0.23947 -1.20086,-0.48748 -1.84926,-0.74915 -0.11242,-0.0454 -2.09815,-0.84398 -2.21058,-0.88935 m 0.99876,0.20181 c -1.18228,-0.50701 -2.34136,-1.07857 -3.43943,-1.65592 m 0.91155,0.39304 c -1.08217,-0.60242 -2.04355,-1.10676 -3.12572,-1.70917 m 0.43026,0.15891 c -1.17397,-0.79288 -2.36198,-1.59048 -3.44926,-2.48454 m 1.14052,0.98048 c -0.4923,-0.36492 -0.97186,-0.73887 -1.43149,-1.11863 -0.52705,-0.43547 -1.02812,-0.87874 -1.49347,-1.32594 m 0.20862,0.32981 c -0.90965,-0.88212 -1.77551,-1.82024 -2.51125,-2.82995 m 0.53945,0.8453 c -1.07453,-1.33473 -1.89849,-2.64023 -2.47199,-4.07671 m 0.7212,1.19339 c -0.52692,-1.00922 -0.96706,-2.0784 -1.29954,-3.18037 0,0 -2e-5,0 -4e-5,-1e-5 -10e-4,-5e-4 -0.0397,-0.0146 -0.113,-0.0406 m 0.76332,0.67224 c -0.0564,-0.21062 -0.10937,-0.42323 -0.15876,-0.63786 0,0 -10e-6,0 -3e-5,-1e-5 -0.008,-0.003 -1.19089,-0.52739 -3.41183,-1.20563 m 0.85191,0.0798 c -1.01207,-0.43473 -1.95815,-0.78211 -3.36338,-1.28557 m 0.65318,0.3909 c -1.06911,-0.42968 -2.222,-0.77109 -3.58516,-1.11503 m 0.8234,0.55721 c -1.22909,-0.42217 -2.46813,-0.80095 -3.9199,-1.22923 -0.33048,-0.0975 -0.66554,-0.19569 -1.01223,-0.29721 m 1.59981,0.30899 c -0.15069,-0.0467 -0.30187,-0.0929 -0.45368,-0.13864 -1.07346,-0.32361 -2.15041,-0.61813 -3.29236,-0.92035 m 0.95466,0.0418 c -1.44506,-0.29477 -2.97239,-0.59906 -4.50254,-0.75656 m 1.10971,0.36055 c -1.31717,-0.28263 -2.63406,-0.46286 -3.92256,-0.5896 m 0.91495,-0.0217 c -0.54356,-0.0681 -1.09349,-0.13225 -1.64393,-0.18845 -0.86264,-0.0881 -1.72413,-0.15649 -2.56668,-0.19089 m 1.25538,0.11558 c -1.46192,-0.0813 -2.82713,-0.1537 -4.16851,-0.15632 m 0.90023,-0.11181 c -1.6324,0.0438 -3.1176,0.33413 -4.44109,0.87465 m 1.40349,-0.19603 c -0.67873,0.13314 -1.3333,0.26969 -1.97566,0.42829 -0.55784,0.13772 -1.11546,0.25098 -1.67116,0.34708 m 0.32365,-0.45384 c -1.31567,0.32047 -2.51848,0.49777 -3.67193,0.56123 m 1.03949,-0.28875 c -1.40625,0.17546 -2.70435,0.3819 -4.01329,0.51971 m 0.94704,-0.0339 c -1.44393,0.0848 -2.72542,0.15678 -4.09424,0.17255 m 1.10299,0.0774 c -1.27712,-0.004 -2.55899,0.0163 -3.80402,0.007 m 1.2839,0.28152 c -1.78018,-0.0539 -3.11567,-0.0874 -4.88524,-0.16026 m 0.99479,0.001 c -0.53121,-0.006 -1.05448,-0.0209 -1.56495,-0.0377 -0.77545,-0.0255 -1.50657,-0.0542 -2.25743,-0.0654 m 0.97574,0.0487 c -1.66127,-0.0621 -3.20881,-0.15986 -4.72906,-0.2086 m 1.56073,0.0432 c -0.87961,0.0297 -1.70232,0.0502 -2.54372,0.0939 -0.48208,0.025 -0.95808,0.0572 -1.43237,0.10168 m 0.84735,-0.0675 c -1.75005,0.13243 -3.2806,0.58883 -4.76616,1.37408 m 1.57681,-0.50607 c -0.78156,0.2303 -1.55966,0.53695 -2.32711,0.92551 -0.31738,0.16069 -0.63715,0.30286 -0.95833,0.42667 m 0.42453,-0.37269 c -1.47324,0.7649 -3.00982,1.13366 -4.47889,1.18649 m 1.11667,-0.16383 c -1.18157,0.16808 -2.35756,0.17809 -3.47736,0.0193 m 0.67521,-0.0327 c -0.56582,-0.0415 -1.12364,-0.12624 -1.67224,-0.24829 -0.7024,-0.15628 -1.38937,-0.37362 -2.05883,-0.63942 m 0.76012,0.24058 c -1.22846,-0.34297 -2.39245,-0.86165 -3.54233,-1.50112 m 1.04453,0.56416 c -1.22668,-0.52422 -2.50017,-1.14685 -3.85845,-1.77999 m 0.8338,0.41323 c -0.41475,-0.22991 -0.83028,-0.47063 -1.24463,-0.72066 -0.66907,-0.40374 -1.33554,-0.83205 -1.99206,-1.27938 m 0.98267,0.88485 c -1.09394,-0.59828 -2.10875,-1.24976 -3.1309,-1.89894 m 0.19931,0.12226 c -1.38883,-0.85568 -2.69923,-1.63235 -4.04448,-2.36172 m 1.20527,0.62225 c -0.53402,-0.29701 -1.05517,-0.59686 -1.56538,-0.88968 -0.70384,-0.40395 -1.38378,-0.79267 -2.06762,-1.15477 m 1.16993,0.13956 c -1.0543,-0.52885 -2.16207,-1.00015 -3.2782,-1.34087 m 0.63657,0.2379 c -1.27238,-0.55282 -2.47276,-0.99952 -3.68227,-1.30463 m 0.89304,0.64587 c -0.5754,-0.17572 -1.13025,-0.32497 -1.66983,-0.44639 -0.78384,-0.17637 -1.50225,-0.34935 -2.18746,-0.52887 m 0.81291,-0.0671 c -1.59086,-0.22319 -3.00483,-0.51217 -4.37598,-0.73684 m 1.07472,0.55943 c -1.65161,-0.29508 -3.11126,-0.57741 -4.56108,-0.92221 m 1.62654,0.0142 c -1.30117,-0.22468 -2.62482,-0.32222 -3.77108,-0.38734 m 0.36301,0.33575 c -0.97971,-0.0711 -1.83289,-0.13089 -2.68212,-0.15996 -0.67218,-0.023 -1.29592,-0.0246 -1.88716,0.002 m 1.42015,-0.21292 c -1.78702,-0.0663 -3.0767,-0.11561 -4.59284,-0.13159 m 1.35349,0.0208 c -1.73094,-0.006 -3.3151,0.11241 -4.91448,0.2614 m 1.31896,-0.0674 c -0.59636,0.0463 -1.18466,0.0951 -1.77281,0.15222 -0.93347,0.0907 -1.87883,0.20368 -2.79765,0.35829 m 1.3429,-0.40015 c -1.45786,0.17336 -2.87158,0.24863 -4.57967,0.35274 m 1.05408,0.11396 c -1.23326,0.11208 -2.53922,0.17371 -4.03999,0.21388 m 0.86416,-0.0224 c -0.40277,0.0369 -0.81261,0.0671 -1.23302,0.0924 -0.97792,0.0589 -1.86976,0.0846 -2.89915,0.12049 m 1.43055,-0.27291 c -1.34105,0.0227 -2.80428,0.026 -4.2873,-0.0763 m 0.66979,0.30452 c -1.31547,0.0146 -2.66096,0.009 -4.04578,0.0198 m 1.09051,-0.0757 c -1.48976,0.0132 -2.77478,-0.0866 -4.36324,-0.19112 m 0.96379,0.1684 c -0.54048,-0.0157 -1.10575,-0.0424 -1.69417,-0.0791 -0.67034,-0.0418 -1.34778,-0.0641 -2.01895,-0.0645 m 0.75006,-0.003 c -1.1488,0.0246 -2.33935,0.0448 -3.49952,0.0996 m 0.70431,-0.0515 c -1.22379,0.14104 -2.45866,0.27249 -3.6272,0.43023 m 0.66842,-0.10751 c -1.31133,0.22522 -2.59246,0.52564 -3.82294,0.86769 m 1.29485,-0.30001 c -1.11219,0.30513 -2.23494,0.64057 -3.38413,1.00062 -1.4e-4,4e-5 -0.0938,0.0294 -0.0939,0.0295 m 0.35603,-0.18467 c -0.22059,0.069 -0.43715,0.1407 -0.65018,0.21511 -1.00512,0.35108 -1.92873,0.76054 -2.82955,1.21843 m 0.60079,-0.37453 c -1.13033,0.41769 -2.17443,0.85438 -3.18563,1.28011 m 0.84053,-0.14607 c -1.27366,0.50279 -2.5554,1.05549 -3.88481,1.58734 m 1.01947,-0.44313 c -1.30408,0.57172 -2.56042,1.20017 -3.89389,1.87756 m 0.83079,-0.70714 c -0.88308,0.39836 -1.72114,0.84368 -2.5469,1.32332 -0.37922,0.22027 -0.75589,0.4478 -1.13284,0.6812 m 1.00179,-0.55505 c -1.0643,0.53891 -2.11407,1.07175 -3.17837,1.61067 m 0.77049,-0.0622 c -1.43451,0.70139 -2.78451,1.38691 -4.00321,1.95951 m 1.23987,-0.8174 c -1.18569,0.61377 -2.4829,1.26777 -3.66859,1.88154 m 1.03802,-0.59192 c -1.32935,0.6421 -2.39593,1.1533 -3.64993,1.76923 0.001,-5.4e-4 -0.24795,0.12196 -0.24687,0.12143 m 0.44491,-0.46046 c -0.25485,0.10065 -0.5067,0.2015 -0.75461,0.30133 -1.05918,0.42648 -2.02007,0.82273 -2.98557,1.17183 m 1.09364,-0.0877 c -1.29434,0.50727 -2.57287,0.90113 -3.8095,1.20849 m 1.15863,-0.34468 c -1.4567,0.36154 -2.8741,0.6375 -4.30547,0.67935 m 0.9711,-0.01 c -1.01464,0.19209 -1.98301,0.27112 -2.89964,0.25704 -0.39471,-0.006 -0.79904,-9.6e-4 -1.20775,0.0169 m 1.00617,-0.0798 c -1.46021,0.0372 -3.108827,0.17629 -4.857443,0.42726 m 1.596341,-0.41903 c -1.406069,0.19875 -3.089025,0.55553 -4.87666,1.08767 m 1.191934,-0.12777 c -1.213622,0.26455 -2.369955,0.56595 -3.51045,0.93885 m 0.978393,-0.11458 c -1.157976,0.32512 -2.395566,0.64537 -3.591686,0.99105 m 0.856544,-0.19363 c -0.663663,0.20977 -1.32183,0.39719 -1.991797,0.57325 -0.858591,0.22562 -1.718094,0.42783 -2.627347,0.63545 m 1.117698,-0.55139 c -1.424984,0.41865 -2.753136,0.89533 -4.124708,1.35485 m 0.816064,-0.33918 c -1.52228,0.50622 -3.055268,1.13884 -4.587619,1.81605 m 1.92572,-0.26804 c -1.419744,0.55817 -2.770524,1.00505 -4.177282,1.42332 m 0.962049,-0.13567 c -1.476317,0.57709 -2.916633,1.15249 -4.482304,1.71079 m 1.250009,-0.68232 c -0.996061,0.39292 -1.948735,0.86927 -2.84605,1.3912 -0.18979,0.11039 -0.37712,0.22283 -0.561878,0.33696 m 0.803355,-0.64353 c 0.0094,-0.004 -0.239092,0.11087 -0.229694,0.10652 -1.431029,0.66408 -2.687538,1.25799 -3.933069,1.91605 m 1.034846,-0.74514 c -1.582445,0.73337 -3.003098,1.39332 -4.47078,2.15099 m 1.233742,-0.33874 c -1.109373,0.54077 -2.295537,1.09491 -3.315228,1.57587 m 0.492773,-0.64564 c -1.178383,0.50957 -2.205333,1.06996 -3.101647,1.59142 m 0.463511,-0.0633 c -1.565009,0.76846 -2.871193,1.42163 -4.043517,2.02487 m 1.295985,-0.92371 c -1.532863,0.76659 -2.73262,1.49609 -3.573711,2.04071 m 0.896993,-0.69391 c -1.004927,0.51135 -1.861053,1.01214 -2.229396,1.23014 m 270.056529,-0.60647 c -0.19191,-0.0503 -2.28693,-0.58782 -3.47488,-0.95278 m 0.63183,0.54814 c -1.05152,-0.29254 -2.24355,-0.67528 -3.41872,-1.20117 m 0.70391,0.16672 c -1.36469,-0.37218 -2.94149,-0.90464 -4.56854,-1.39134 m 1.70855,-0.0722 c -1.48903,-0.47395 -3.07925,-1.07616 -4.56828,-1.55011 m 1.1971,0.45882 c -0.53977,-0.22839 -1.08882,-0.45379 -1.65127,-0.67961 -0.82128,-0.32974 -1.64622,-0.65044 -2.49752,-0.9782 m 1.15684,0.49386 c -1.08392,-0.51413 -2.13236,-1.03803 -3.15621,-1.58749 m 0.41163,0.63584 c -1.18067,-0.60373 -2.29151,-1.33169 -3.34025,-2.15367 m 0.97273,0.54468 c -1.28147,-0.74226 -2.485,-1.67818 -3.63766,-2.69137 m 0.98316,0.69331 c -0.41434,-0.30906 -0.80537,-0.63042 -1.17551,-0.96465 -0.56014,-0.50581 -1.07323,-1.04185 -1.54566,-1.60879 m 0.77872,0.66844 c -0.85531,-0.78341 -1.68946,-1.66231 -2.44884,-2.56139 m 0.30233,0.47109 c -1.02118,-1.215 -1.79613,-2.33799 -2.40452,-3.49507 m 0.78398,0.72385 c -0.58325,-1.06209 -1.02548,-2.1353 -1.34249,-3.23791 0,0 -2e-5,0 -4e-5,-1e-5 -0.004,-0.002 -0.3928,-0.1421 -1.1184,-0.35727 m 0.8898,0.79014 c -0.0135,-0.0635 -0.0265,-0.12734 -0.0389,-0.19155 0,0 -10e-6,-10e-6 -4e-5,-2e-5 -0.009,-0.004 -1.74507,-0.75887 -4.14985,-1.72955 m 1.34531,0.24274 c -1.30874,-0.47063 -2.9003,-1.11526 -4.8438,-1.84679 0,0 -1e-5,0 -1e-5,0 0,0 -0.004,-0.002 -0.004,-0.002 m 1.5436,0.86678 c -1.65954,-0.60106 -2.81199,-0.95119 -4.61494,-1.55959 m 1.39975,0.52319 c -0.56356,-0.17342 -1.14322,-0.3349 -1.73886,-0.48451 -0.88018,-0.22107 -1.78412,-0.4134 -2.70717,-0.57879 m 1.08057,-0.29505 c -1.54466,-0.35734 -3.28604,-0.73772 -5.13208,-0.97829 m 1.66771,0.55745 c -1.64582,-0.36192 -3.20895,-0.62841 -4.76664,-0.83366 m 1.55404,0.17099 c -0.66019,-0.10407 -1.35119,-0.18598 -2.05723,-0.24726 -0.9595,-0.0833 -1.94816,-0.12856 -2.92312,-0.13905 m 1.32361,-0.2904 c -1.21244,-0.046 -2.44437,-0.0446 -3.64183,0.0954 m 0.87895,-0.10868 c -1.36082,0.0433 -2.58841,0.1462 -3.75999,0.38433 m 0.87649,-0.0308 c -0.95431,0.14974 -1.8694,0.30138 -2.75741,0.51235 -0.48561,0.11537 -0.96872,0.21587 -1.44191,0.30662 m 0.95004,-0.34838 c -1.60355,0.34293 -2.80955,0.65838 -4.20632,0.89618 m 1.08089,0.296 c -1.73243,0.31766 -3.31645,0.40168 -4.84022,0.38495 m 1.29829,-0.29612 c -1.17454,0.0983 -2.38714,0.18079 -3.5542,0.26089 m 0.7781,-0.0774 c -1.59671,0.085 -3.24206,-0.0673 -4.81005,-0.28835 m 1.4683,0.31935 c -1.48525,-0.006 -3.08806,-0.13984 -4.5684,-0.25868 0.0209,0.002 -0.24533,-0.0197 -0.22447,-0.018 m 1.24593,0.3382 c -0.385,-0.018 -0.76157,-0.0422 -1.13101,-0.071 -1.01314,-0.079 -1.98349,-0.19378 -2.92398,-0.31395 m 1.1611,0.29343 c -1.23241,-0.006 -2.46075,-0.0843 -3.62139,-0.10036 m 0.97961,-0.30177 c -0.78212,-0.0124 -1.58744,0.0162 -2.38727,0.0802 -0.50509,0.0404 -1.01124,0.0951 -1.51331,0.16351 m 0.70039,0.046 c -1.37518,0.13917 -2.6298,0.46944 -3.78199,1.0112 m 0.75594,-0.57921 c -0.94708,0.28384 -1.82719,0.63425 -2.64713,1.0982 -0.254,0.14372 -0.50621,0.27432 -0.75695,0.39289 m 0.77884,-0.0937 c -1.34887,0.77427 -2.77039,1.13609 -4.16146,1.25133 m 1.47543,-0.33169 c -1.19215,0.25268 -2.44391,0.27562 -3.69322,0.1152 m 0.3034,0.35795 c -0.67044,-0.0385 -1.34933,-0.13533 -2.02502,-0.28442 -0.4722,-0.10419 -0.94346,-0.23404 -1.40876,-0.38745 m 0.79404,-0.064 c -1.4844,-0.35247 -2.87296,-1.01115 -4.16571,-1.80765 m 1.04025,0.85385 c -1.27222,-0.55864 -2.57551,-1.2057 -3.92562,-1.90522 m 1.0685,0.67953 c -0.47695,-0.24452 -0.94032,-0.49732 -1.3976,-0.75553 -0.9216,-0.5204 -1.81291,-1.06002 -2.7211,-1.58306 m 1.09133,0.35267 c -1.14898,-0.73008 -2.31829,-1.44612 -3.53141,-2.1942 m 0.64959,0.51875 c -1.19865,-0.76052 -2.36705,-1.38643 -3.58921,-1.96589 m 1.03616,0.49568 c -0.45422,-0.25027 -0.90493,-0.51339 -1.35173,-0.78288 -0.64141,-0.38687 -1.27724,-0.78841 -1.90026,-1.18192 m 0.76495,0.81668 c -1.2012,-0.64623 -2.34542,-1.23991 -3.4405,-1.71941 m 0.77901,0.41867 c -1.40421,-0.63335 -2.81359,-1.12385 -4.15124,-1.40609 -0.004,-8.4e-4 -0.22374,-0.0472 -0.22774,-0.048 m 1.11395,0.057 c -0.35442,-0.10993 -0.70988,-0.20485 -1.06374,-0.28532 -1.24015,-0.28201 -2.20044,-0.48172 -3.24956,-0.74749 m 0.93489,0.33088 c -1.63387,-0.31514 -3.37301,-0.55905 -4.80345,-0.74359 m 1.77925,0.2739 c -1.28238,-0.18192 -2.57491,-0.3883 -3.77137,-0.58912 m 0.88394,0.14398 c -1.30976,-0.1314 -2.79542,-0.35105 -3.95568,-0.51457 m 0.71852,0.12923 c -0.71274,-0.0744 -1.39627,-0.10481 -2.0513,-0.10264 -0.54276,0.002 -1.0713,0.026 -1.58551,0.0674 m 0.99886,-0.15485 c -1.59586,-0.0842 -3.30455,-0.22126 -4.71884,-0.34514 m 1.25833,0.37026 c -1.44907,-8.6e-4 -2.89227,0.0759 -4.28732,0.16311 m 1.25348,-0.21766 c -0.62729,0.0563 -1.27436,0.10724 -1.90086,0.15698 -0.62533,0.0496 -1.25964,0.10031 -1.89041,0.15765 m 0.65659,-0.0748 c -1.49274,0.1186 -3.14646,0.19954 -4.89579,0.15475 m 1.81403,0.15461 c -1.49139,0.0787 -2.95588,0.26752 -4.67098,0.52408 m 1.13184,-0.35332 c -0.4634,0.0311 -0.92876,0.0586 -1.40588,0.0835 -0.98339,0.0513 -1.92761,0.0872 -3.02817,0.12653 m 1.18809,0.0915 c -1.55655,0.0782 -3.03656,0.10257 -5.0804,0.14753 m 1.41121,-0.336 c -1.2256,-0.009 -2.58948,-0.0462 -4.00474,-0.11718 m 1.27963,0.29424 c -1.48507,-0.007 -3.01689,-0.17587 -4.80606,-0.49847 m 1.29299,0.17071 c -0.5279,-0.0317 -1.05599,-0.0684 -1.58914,-0.11132 -0.71212,-0.0573 -1.41264,-0.0891 -2.11959,-0.0997 m 0.84497,-0.11868 c -1.655,-0.0187 -3.30103,0.16166 -5.05568,0.47815 m 1.58841,0.13915 c -1.21513,0.11949 -2.45206,0.27574 -3.7593,0.44738 m 0.75068,-0.28623 c -1.44903,0.31988 -2.83166,0.67746 -4.15265,1.15001 m 1.32108,-0.40446 c -0.81721,0.2631 -1.63835,0.50688 -2.48586,0.76496 -0.41653,0.12685 -0.83628,0.25623 -1.25542,0.3904 m 0.57151,-0.0839 c -1.36878,0.43933 -2.6344,0.93294 -3.91583,1.40995 m 1.05582,-0.61496 c -1.11015,0.42793 -2.21803,0.95696 -3.3005,1.5491 m 0.53924,-0.0856 c -1.28979,0.61935 -2.56471,1.1734 -3.73696,1.72338 m 1.19398,-0.34621 c -1.14268,0.52857 -2.29654,1.12974 -3.43734,1.73952 m 0.55773,-0.53816 c -0.46705,0.22285 -0.92131,0.44446 -1.36415,0.66191 -0.59151,0.29047 -1.1567,0.57057 -1.71457,0.84137 m 0.57451,-0.24578 c -1.17239,0.59265 -2.36451,1.16986 -3.52781,1.69858 m 0.94341,-0.57622 c -1.50508,0.68852 -3.01165,1.57339 -4.5447,2.40141 m 1.39093,-0.6601 c -1.31954,0.7079 -2.66685,1.29807 -3.90826,1.82915 m 1.12975,-0.43459 c -0.79557,0.33173 -1.58402,0.66245 -2.39814,0.97898 -0.36096,0.14034 -0.72259,0.27614 -1.0859,0.40572 m 0.51188,-0.33407 c -1.30601,0.58391 -2.63085,1.03342 -3.87603,1.39743 m 1.16534,-0.14684 c -1.25281,0.39053 -2.46658,0.76216 -3.67896,1.04974 m 0.74565,-0.18002 c -1.4718,0.35094 -2.97464,0.53504 -4.42364,0.50038 m 1.26667,0.0701 c -0.61219,0.0667 -1.21625,0.10131 -1.8109,0.10066 -0.96826,-0.001 -2.003615,0.0641 -3.088881,0.18127 m 1.374911,-0.16404 c -1.208554,0.0724 -2.462077,0.27803 -3.752204,0.61211 m 0.559887,-0.2688 c -1.519167,0.24628 -3.131901,0.62455 -4.877361,1.1071 m 1.793577,-0.38943 c -1.531357,0.3967 -3.019636,0.69933 -4.795593,1.05991 m 1.388042,-0.0221 c -1.095683,0.35363 -2.124927,0.6431 -3.226557,0.96682 -0.308853,0.0908 -0.618184,0.18278 -0.925696,0.27695 m 1.01436,-0.71477 c -0.05356,0.0171 -0.107021,0.0344 -0.160393,0.0517 -1.137387,0.36942 -2.230251,0.78493 -3.283901,1.25324 m 0.90186,-0.30554 c -1.196065,0.42434 -2.461136,0.83412 -3.788234,1.26545 m 0.947987,0.0456 c -1.441233,0.53023 -2.847184,1.09533 -4.226676,1.71241 m 0.821518,-0.63049 c -1.082896,0.45121 -2.190682,0.91611 -3.298314,1.40797 m 0.824446,-0.56187 c -1.290134,0.53752 -2.631563,1.15662 -3.918258,1.79329 m 0.832278,-0.33267 c -0.876185,0.38228 -1.700038,0.72605 -2.489493,1.03943 -0.436244,0.17317 -0.860998,0.33667 -1.276991,0.4918 m 0.955721,-0.61745 c -1.126351,0.44497 -2.188658,0.95293 -3.17768,1.45352 m 0.613618,-0.11331 c -1.218946,0.56159 -2.35638,1.13386 -3.485104,1.7303 m 0.964608,-0.55888 c -1.145756,0.57874 -2.31201,1.06667 -3.37397,1.5026 m 0.336272,-0.0141 c -1.280294,0.57534 -2.45728,1.18282 -3.479812,1.71914 m 1.215641,-0.4997 c -1.296026,0.6877 -2.596945,1.18069 -3.633842,1.55381 m 0.684646,-0.38581 c -1.308127,0.67381 -2.382065,1.20297 -3.216785,1.63734 m 0.480472,-0.59493 c -1.15863,0.5569 -2.416184,1.25683 -2.766097,1.45031 m 271.058028,-0.23816 c -0.20116,-0.0477 -2.24586,-0.53759 -4.35009,-1.12084 m 0.86413,0.29276 c -1.09509,-0.32547 -2.57161,-0.77472 -3.96695,-1.30229 m 1.10216,0.28662 c -1.28622,-0.37468 -2.5991,-0.83107 -4.16025,-1.40546 m 1.21493,0.46968 c -1.21243,-0.4467 -2.36523,-0.83438 -3.68254,-1.27752 m 0.33539,-0.0609 c -0.69178,-0.24653 -1.356,-0.53631 -2.00094,-0.85925 -0.55834,-0.27958 -1.09625,-0.58099 -1.61939,-0.89571 m 0.95887,0.49174 c -1.26962,-0.55882 -2.39943,-1.13557 -3.43165,-1.7469 m 0.76584,0.82269 c -1.41304,-0.75425 -2.89302,-1.63028 -4.22367,-2.6091 m 1.43162,0.82898 c -1.32218,-0.8338 -2.52052,-1.62779 -3.66497,-2.49835 m 0.54346,0.82446 c -0.3494,-0.25993 -0.68078,-0.52535 -0.99597,-0.79648 -0.65687,-0.56504 -1.24549,-1.15669 -1.7788,-1.77504 m 0.82672,0.39054 c -1.02105,-1.05097 -1.95461,-2.1555 -2.6652,-3.39715 m 0.23747,0.59298 c -0.95608,-1.2009 -1.62365,-2.52841 -1.9679,-3.87274 m 0.71273,1.48224 c -0.42137,-0.83668 -0.73407,-1.71786 -0.9487,-2.63327 0,0 -1e-5,0 -3e-5,-1e-5 -0.004,-0.002 -0.26703,-0.11326 -0.75412,-0.30353 m 0.53604,0.0546 c -0.1525,-0.0597 -1.51764,-0.65934 -3.778,-1.27769 m 1.31316,0.31068 c -1.09987,-0.42179 -2.48768,-0.98351 -4.29203,-1.75495 m 1.18457,0.76325 c -1.48424,-0.51146 -2.93642,-1.02951 -4.61633,-1.64837 m 1.04804,0.27677 c -0.71242,-0.25405 -1.45102,-0.47755 -2.23248,-0.69671 -0.39376,-0.11043 -0.78889,-0.21715 -1.19296,-0.3257 m 0.99225,0.48604 c -1.33379,-0.34021 -2.72635,-0.66959 -4.15147,-0.88607 m 0.84331,0.23191 c -1.52141,-0.30817 -3.19435,-0.67474 -4.85165,-0.90523 m 1.30923,-0.11529 c -1.12116,-0.22924 -2.25544,-0.36451 -3.35066,-0.45033 -0.28825,-0.0226 -0.57405,-0.0418 -0.85605,-0.0583 m 1.2838,0.13591 c -0.0823,-0.0119 -0.16459,-0.0233 -0.24682,-0.0341 -1.61554,-0.2126 -3.23853,-0.21607 -4.85373,-0.12913 m 1.50081,-0.11089 c -1.4446,-0.0347 -2.84014,-0.008 -4.15187,0.12875 m 0.94424,0.0249 c -1.26671,0.14517 -2.45672,0.31429 -3.59879,0.58529 -0.44049,0.10452 -0.87923,0.19834 -1.31491,0.28402 m 1.56155,-0.26815 c -0.0457,0.0118 -0.0914,0.0238 -0.13691,0.0358 -1.30606,0.34581 -2.60971,0.5652 -3.91942,0.68235 m 0.98051,0.0522 c -1.17199,0.27131 -2.37227,0.45396 -3.49977,0.59977 m 1.23227,-0.18351 c -1.25481,0.10084 -2.46145,0.23415 -3.68399,0.34292 m 0.57766,-0.11644 c -1.40163,0.11234 -2.79443,0.055 -4.14281,-0.0787 m 0.81124,0.19834 c -1.54362,0.059 -3.10792,-0.0719 -4.49254,-0.18319 m 1.17029,0.13073 c -0.84764,-0.0167 -1.86172,-0.0499 -2.70937,-0.0666 -0.49693,-0.0102 -0.98406,-0.0166 -1.4609,-0.0154 m 1.10448,-0.25346 c -1.65611,-0.0624 -3.08894,-0.1636 -4.50054,-0.17316 m 1.26471,0.12786 c -1.16068,-0.0511 -2.30292,0.0105 -3.35044,0.16166 -0.45632,0.0659 -0.89857,0.14926 -1.32227,0.24936 m 1.3286,0.0367 c -1.1e-4,2e-5 -0.0204,0.002 -0.0205,0.002 -1.26639,0.14578 -2.49579,0.27437 -3.7222,0.54582 m 0.64969,-0.19915 c -1.1338,0.25394 -2.23136,0.66693 -3.23196,1.25194 -0.15278,0.0893 -0.30477,0.17366 -0.45585,0.25303 m 0.84054,-0.62569 c -0.14648,0.067 -0.29179,0.13776 -0.43597,0.21239 -1.27349,0.65915 -2.5182,1.07023 -3.79802,1.21535 m 1.23622,-0.22822 c -1.58085,0.39143 -3.22709,0.32302 -4.82175,-0.0932 m 1.31763,0.19838 c -0.64429,-0.0317 -1.29834,-0.11706 -1.96242,-0.24458 -0.93435,-0.17942 -1.88327,-0.44121 -2.85341,-0.75232 m 1.36466,0.4317 c -1.36988,-0.43841 -2.71917,-0.98578 -4.04862,-1.64458 m 1.10934,0.56912 c -1.06067,-0.51487 -2.19335,-1.08239 -3.29846,-1.66844 m 0.58589,0.54235 c -0.39336,-0.20796 -0.78332,-0.42997 -1.17148,-0.66477 -1.00881,-0.61025 -1.99671,-1.3016 -2.9961,-2.05094 m 1.01993,1.06459 c -1.23231,-0.74154 -2.36319,-1.44784 -3.52272,-2.15536 m 1.32392,0.53166 c -1.23103,-0.70355 -2.24615,-1.32736 -3.47717,-2.03091 m 1.0518,0.46034 c -0.38862,-0.23276 -0.77499,-0.45974 -1.1594,-0.68063 -0.80718,-0.46383 -1.60971,-0.90314 -2.4078,-1.31313 m 0.58521,0.36127 c -1.16098,-0.63182 -2.43736,-1.15798 -3.71696,-1.53942 m 0.61756,0.12539 c -1.22375,-0.53506 -2.49261,-0.94472 -3.7429,-1.2181 m 1.03167,0.25638 c -0.38747,-0.10921 -0.76931,-0.20072 -1.14528,-0.27382 -0.86061,-0.16734 -1.67,-0.30607 -2.41198,-0.42221 m 0.97743,0.23841 c -1.29861,-0.20748 -2.41714,-0.38876 -3.58877,-0.53148 m 0.43576,-0.036 c -1.5314,-0.29862 -3.41648,-0.55698 -4.56597,-0.74376 m 1.7017,0.43239 c -1.71231,-0.28539 -3.54821,-0.43165 -5.08472,-0.55685 m 1.62197,0.0619 c -0.76435,-0.0451 -1.50817,-0.12113 -2.19803,-0.20494 -0.79974,-0.0972 -1.60471,-0.21473 -2.31722,-0.32015 m 1.36736,-0.0596 c -1.80259,-0.0479 -3.34724,-0.0241 -4.93004,0.11328 m 1.42315,0.17224 c -1.66836,0.0352 -3.14992,0.16006 -4.68341,0.39144 0,0 -0.0129,0.002 -0.0129,0.002 m 1.26186,-0.40093 c -0.43081,0.0393 -0.86716,0.0732 -1.30596,0.10406 -1.234,0.0867 -2.59354,0.15546 -3.82754,0.24219 m 1.44491,0.28519 c -1.37542,0.14547 -2.88674,0.18391 -4.49476,0.11644 m 1.22239,-0.2335 c -1.24487,0.0525 -2.30779,0.15506 -3.59902,0.25507 -0.33869,0.0262 -0.68622,0.0514 -1.03655,0.0727 m 1.22551,0.37825 c -0.0958,0.007 -0.19156,0.0132 -0.28736,0.0188 -1.05876,0.062 -2.08851,0.0429 -3.18291,-0.0312 m 0.52718,-0.064 c -1.27959,0.0358 -2.55651,0.0248 -3.91629,-0.008 m 0.89417,-0.10103 c -1.72856,0.0271 -2.97095,9.6e-4 -4.92161,-0.004 m 1.80206,0.0277 c -1.39506,-0.0872 -2.70732,-0.10532 -4.35823,-0.12994 -2e-5,0 -0.0378,-5.3e-4 -0.0379,-5.3e-4 m 0.8362,-0.20994 c -0.32693,-0.0136 -0.66057,-0.0307 -0.99996,-0.0514 -1.00967,-0.0614 -2.02304,-0.0778 -2.99899,-0.049 m 1.24132,-0.0444 c -1.35183,0.0169 -2.68142,0.16908 -3.9859,0.42535 m 0.79505,0.0977 c -1.46729,0.15597 -2.87676,0.42713 -4.33715,0.76083 m 1.12957,-0.45351 c -1.39203,0.31456 -2.86967,0.71426 -4.29111,1.14549 m 0.73963,-0.33678 c -0.58924,0.18325 -1.16512,0.37721 -1.73296,0.58398 -0.66391,0.24176 -1.31712,0.50115 -1.96905,0.78194 m 1.26098,-0.18542 c -1.17802,0.48319 -2.27607,0.90583 -3.4541,1.38903 m 0.65709,-0.83453 c -1.24028,0.48108 -2.52764,1.10513 -3.74544,1.76352 m 0.99848,-0.13401 c -1.24071,0.60058 -2.55522,1.19633 -3.86745,1.809 m 0.67868,-0.46926 c -1.13372,0.59344 -2.29281,1.13784 -3.45182,1.69324 -0.14669,0.0703 -0.29339,0.14076 -0.44017,0.21159 m 1.39056,-0.53438 c -0.18448,0.0934 -0.36753,0.18791 -0.5494,0.28365 -1.14566,0.60312 -2.2437,1.25366 -3.35571,1.96014 m 1.02141,-1.12655 c -1.34401,0.67531 -2.77037,1.4888 -4.13431,2.35126 m 1.22633,-0.54235 c -1.26666,0.59061 -2.53237,1.15977 -3.85737,1.67167 m 0.79979,-0.21141 c -1.34411,0.67762 -2.76809,1.32054 -4.05317,1.90654 m 1.30092,-0.3999 c -0.37182,0.15288 -0.74395,0.30465 -1.11774,0.45305 -1.08486,0.4307 -2.14843,0.8187 -3.17537,1.09875 m 0.95253,-0.49351 c -1.52609,0.62306 -3.11936,1.11607 -4.58397,1.51603 m 1.61309,-0.47876 c -1.6892,0.49507 -3.37123,0.7493 -5.09515,0.81855 m 1.23104,-0.1044 c -0.82451,0.1384 -1.64665,0.18501 -2.44801,0.15345 -0.55415,-0.0218 -1.13858,-0.0308 -1.732022,-0.0239 m 1.337772,-0.0679 c -1.214181,0.0285 -2.529816,0.19052 -3.962441,0.46468 m 0.686066,-0.21814 c -1.385458,0.20605 -2.922037,0.491 -4.471288,0.82761 m 1.297584,-0.2784 c -1.397552,0.29794 -2.881593,0.72705 -4.405998,1.31465 m 1.62938,-0.19311 c -1.123514,0.35323 -2.278576,0.62528 -3.51626,0.91766 m 0.299995,-0.22367 c -0.983273,0.30726 -0.65524,0.20422 -1.638513,0.51148 -0.592809,0.18602 -1.191978,0.37634 -1.776023,0.56883 m 0.913854,-0.25107 c -1.485487,0.5374 -2.869686,0.92456 -4.237077,1.29456 m 0.775763,-0.3279 c -1.427462,0.54068 -2.890881,1.02074 -4.386704,1.4792 m 1.448425,-0.4197 c -1.370452,0.56673 -2.687887,1.10831 -3.951516,1.72483 m 1.026674,-0.22226 c -1.534677,0.63493 -3.048868,1.2414 -4.548096,1.82523 m 0.945456,-0.61768 c -1.007356,0.3956 -2.01891,0.85108 -2.957543,1.2876 -0.128388,0.0597 -0.255663,0.11918 -0.381524,0.17818 m 0.945143,-0.4341 c -0.132366,0.0525 -0.264503,0.10572 -0.396445,0.15965 -1.438794,0.58811 -2.859379,1.25619 -4.333236,1.90121 m 1.571145,-0.89795 c -1.195207,0.58339 -2.344407,1.16784 -3.463138,1.8329 m 0.640134,0.12869 c -1.595684,0.67177 -2.985206,1.26569 -4.451001,1.71853 m 1.30527,-0.71732 c -1.055763,0.49613 -2.210656,1.06982 -3.112563,1.51359 m 0.586271,-0.51492 c -1.376197,0.6541 -2.573635,1.34663 -3.539335,1.97202 m 0.892707,-0.11908 c -1.598414,0.8224 -2.930214,1.48169 -3.858578,1.95349 m 1.251347,-0.56526 c -1.172208,0.61523 -2.363706,1.17984 -2.530462,1.25967"
         id="path1305"
         inkscape:path-effect="#path-effect2682"
         inkscape:original-d="m 322.01376,227.5457 c 0,0 -27.41752,-5.65825 -30.36345,-19.72976 0,0 -19.77015,-8.74483 -31.6228,-5.53436 -13.27378,3.59541 -23.40072,-1.29187 -31.11139,2.90177 -10.50725,5.71464 -21.70255,-8.50644 -32.65548,-10.62703 -22.68173,-4.3914 -22.78417,0.0722 -45.12989,-1.25753 -17.60156,-1.04742 -35.58825,16.40838 -49.43336,16.40838 -15.779345,0 -50.703002,18.74844 -50.703002,18.74844" />
      <ellipse
         style="fill:none;stroke:#808080;stroke-width:0.799154;stroke-miterlimit:4;stroke-dasharray:none"
         id="ellipse12815"
         cx="74.62001"
         cy="223.20386"
         rx="4.6163588"
         ry="2.2885485"
         transform="matrix(0.33107983,0,0,0.33107983,125.80715,123.7537)" />
      <ellipse
         style="fill:none;stroke:#808080;stroke-width:0.799154;stroke-miterlimit:4;stroke-dasharray:none"
         id="ellipse12805"
         cx="74.62001"
         cy="223.20386"
         rx="4.6163588"
         ry="2.2885485"
         transform="matrix(0.33107983,0,0,0.33107983,114.85778,129.45129)" />
      <ellipse
         style="fill:none;stroke:#808080;stroke-width:0.459062;stroke-miterlimit:4;stroke-dasharray:none"
         id="ellipse12795"
         cx="74.62001"
         cy="223.20386"
         rx="4.6163588"
         ry="2.2885485"
         transform="matrix(0.57635756,0,0,0.57635756,93.118416,81.618409)" />
      <ellipse
         style="fill:none;stroke:#808080;stroke-width:0.565074;stroke-miterlimit:4;stroke-dasharray:none"
         id="ellipse12785"
         cx="74.62001"
         cy="223.20386"
         rx="4.6163588"
         ry="2.2885485"
         transform="matrix(0.46822875,0,0,0.46822875,92.683364,103.58716)" />
      <ellipse
         style="fill:none;stroke:#808080;stroke-width:0.565074;stroke-miterlimit:4;stroke-dasharray:none"
         id="ellipse12775"
         cx="74.62001"
         cy="223.20386"
         rx="4.6163588"
         ry="2.2885485"
         transform="matrix(0.46822875,0,0,0.46822875,78.008138,106.52401)" />
      <ellipse
         style="fill:none;stroke:#808080;stroke-width:0.348823;stroke-miterlimit:4;stroke-dasharray:none"
         id="ellipse12765"
         cx="74.62001"
         cy="223.20386"
         rx="4.6163588"
         ry="2.2885485"
         transform="matrix(0.75850424,0,0,0.75850424,57.915624,53.270447)" />
      <ellipse
         style="fill:none;stroke:#808080;stroke-width:0.348823;stroke-miterlimit:4;stroke-dasharray:none"
         id="ellipse12755"
         cx="74.62001"
         cy="223.20386"
         rx="4.6163588"
         ry="2.2885485"
         transform="matrix(0.75850424,0,0,0.75850424,48.102937,45.384223)" />
      <ellipse
         style="fill:none;stroke:#808080;stroke-width:0.457035;stroke-miterlimit:4;stroke-dasharray:none"
         id="ellipse12665"
         cx="74.62001"
         cy="223.20386"
         rx="4.6163588"
         ry="2.2885485"
         transform="matrix(0.57891354,0,0,0.57891354,50.859088,89.880183)" />
      <ellipse
         style="fill:none;stroke:#808080;stroke-width:0.264584;stroke-miterlimit:4;stroke-dasharray:none"
         id="ellipse12579"
         cx="74.62001"
         cy="223.20386"
         rx="4.6163588"
         ry="2.2885485" />
    </g>
    <g
       id="g1147"
       inkscape:label="Car"
       transform="matrix(0.49377324,-0.13230614,0.1320532,0.49282926,-146.64499,165.7614)"
       style="stroke-width:0.195809;stroke-miterlimit:4;stroke-dasharray:none">
      <g
         id="g53221"
         inkscape:label="Chassis"
         style="stroke-width:0.195809;stroke-miterlimit:4;stroke-dasharray:none">
        <rect
           style="fill:#ffffff;stroke:#000000;stroke-width:0.195809;stroke-miterlimit:4;stroke-dasharray:none"
           id="rect5695"
           width="45.688721"
           height="3.3908088"
           x="309.16574"
           y="75.035118" />
        <path
           id="rect53774"
           style="fill:#ffffff;stroke:#000000;stroke-width:0.195809;stroke-miterlimit:4;stroke-dasharray:none"
           d="m 309.1522,71.308525 h 10.3491 l 3.72709,3.726593 H 309.1522 Z" />
      </g>
      <g
         id="g6686"
         inkscape:label="Controls"
         style="stroke-width:0.195809;stroke-miterlimit:4;stroke-dasharray:none">
        <rect
           style="fill:#ffffff;stroke:#000000;stroke-width:0.195809;stroke-miterlimit:4;stroke-dasharray:none"
           id="rect6218"
           width="2.948292"
           height="13.549353"
           x="189.2374"
           y="280.53864"
           transform="rotate(-45)" />
        <path
           id="rect6211"
           style="fill:#ffffff;stroke:#000000;stroke-width:0.195809;stroke-miterlimit:4;stroke-dasharray:none"
           d="m 328.00922,60.347342 7.97101,-1.5875 v 7.05607 l -7.97101,-1.5875 z" />
        <path
           style="fill:#ffffff;stroke:#000000;stroke-width:0.195809;stroke-miterlimit:4;stroke-dasharray:none"
           d="m 331.14342,64.865397 -0.55078,-0.09183 c -0.1307,2.711543 1.59664,4.677333 4.94618,3.170662 l -0.37169,-0.369551 c -2.85998,1.152375 -4.11587,-0.538099 -4.02371,-2.709281 z"
           id="path6721" />
        <rect
           style="fill:#ffffff;stroke:#000000;stroke-width:0.195809;stroke-miterlimit:4;stroke-dasharray:none"
           id="rect18939"
           width="0.50313556"
           height="13.261012"
           x="330.86203"
           y="47.804676" />
      </g>
      <g
         id="g53767"
         inkscape:label="Chair"
         style="stroke-width:0.195809;stroke-miterlimit:4;stroke-dasharray:none">
        <rect
           style="fill:#ffffff;stroke:#000000;stroke-width:0.195809;stroke-miterlimit:4;stroke-dasharray:none"
           id="rect53681"
           width="13.854706"
           height="3.726593"
           x="332.10489"
           y="71.308525" />
        <rect
           style="fill:#ffffff;stroke:#000000;stroke-width:0.195809;stroke-miterlimit:4;stroke-dasharray:none"
           id="rect53763"
           width="13.855"
           height="1.0694026"
           x="-33.483913"
           y="-352.90408"
           transform="rotate(105)" />
        <path
           id="rect2806"
           style="fill:#ffffff;stroke:#000000;stroke-width:0.195809;stroke-miterlimit:4;stroke-dasharray:none"
           d="m 340.16098,74.911333 v -4.593445 c 0,-0.554 -0.44593,-0.99994 -0.99994,-0.99994 h -3.23905 c -0.55401,0 -1.00047,0.44594 -1.00047,0.99994 v 4.593445 m 0.61857,0 v -4.385191 c 0,-0.288169 0.22307,-0.519864 0.49972,-0.519864 h 3.00341 c 0.27665,0 0.49922,0.231695 0.49922,0.519864 v 4.385191" />
      </g>
      <g
         id="g53050"
         inkscape:label="Sensor"
         style="stroke-width:0.195809;stroke-miterlimit:4;stroke-dasharray:none">
        <rect
           style="fill:#ffffff;stroke:#000000;stroke-width:0.195809;stroke-miterlimit:4;stroke-dasharray:none"
           id="rect9919"
           width="0.85901916"
           height="6.380456"
           x="316.617"
           y="64.92807" />
        <rect
           style="fill:#ffffff;stroke:#000000;stroke-width:0.195809;stroke-miterlimit:4;stroke-dasharray:none"
           id="rect9915"
           width="4.3632274"
           height="3.6916778"
           x="314.8649"
           y="61.236397" />
        <path
           style="fill:#ffffff;stroke:#000000;stroke-width:0.195809;stroke-miterlimit:4;stroke-dasharray:none"
           d="m 316.61132,68.210827 0.003,0.709852 c -4.65867,-1.388121 -2.35661,-4.694199 -0.80297,-5.415361 0.29372,0.01479 0.45682,0.320119 0.36872,0.569444 -2.52195,1.353173 -2.0111,3.712476 0.43135,4.136065 z"
           id="path10237" />
        <path
           id="path8857"
           style="fill:#ffffff;stroke:#000000;stroke-width:0.195809;stroke-miterlimit:4;stroke-dasharray:none"
           d="m 320.27603,61.582351 c 0.89955,0.0058 1.62408,-0.702369 1.61822,-1.5818 -0.006,-0.879216 -0.73989,-1.596524 -1.6392,-1.602305 l -5.26424,0.519215 c -0.89931,-0.0055 -1.62352,0.702585 -1.61767,1.581804 0.005,0.879219 0.73934,1.596781 1.63865,1.602857 z" />
        <circle
           style="fill:#666666;stroke:#000000;stroke-width:0.195809;stroke-miterlimit:4;stroke-dasharray:none"
           id="path18380"
           cx="320.46588"
           cy="59.981392"
           r="1.4279979" />
      </g>
      <g
         id="g8626"
         inkscape:label="Dish"
         style="stroke-width:0.195809;stroke-miterlimit:4;stroke-dasharray:none">
        <ellipse
           style="fill:#cccccc;stroke:#000000;stroke-width:0.195809;stroke-miterlimit:4;stroke-dasharray:none"
           id="path6239"
           cx="308.15167"
           cy="44.291603"
           rx="11.526085"
           ry="7.4533381" />
        <path
           style="fill:none;stroke:#000000;stroke-width:0.195809;stroke-miterlimit:4;stroke-dasharray:none"
           d="m 297.16368,42.040849 c 3.10264,2.050456 6.65256,3.521708 10.57066,4.516162"
           id="path8077" />
        <path
           style="fill:none;stroke:#000000;stroke-width:0.195809;stroke-miterlimit:4;stroke-dasharray:none"
           d="m 297.27748,46.762669 c 3.48562,0.398307 6.97124,0.263131 10.45686,-0.205658"
           id="path8079" />
        <path
           style="fill:none;stroke:#000000;stroke-width:0.195809;stroke-miterlimit:4;stroke-dasharray:none"
           d="m 302.30091,50.713303 c 2.23908,-0.872742 3.82124,-2.532507 5.43343,-4.156292"
           id="path8081" />
        <path
           style="fill:none;stroke:#000000;stroke-width:0.195809;stroke-miterlimit:4;stroke-dasharray:none"
           d="m 311.69571,51.383863 c -1.67596,-1.16465 -2.89486,-2.900522 -3.96137,-4.826852"
           id="path8083" />
        <path
           style="fill:none;stroke:#000000;stroke-width:0.195809;stroke-miterlimit:4;stroke-dasharray:none"
           d="m 316.04342,49.723886 c -3.02173,-0.596088 -5.76499,-1.699915 -8.30908,-3.166875"
           id="path8085" />
        <path
           style="fill:none;stroke:#000000;stroke-width:0.195809;stroke-miterlimit:4;stroke-dasharray:none"
           d="m 319.34706,46.06414 c -3.87091,0.537434 -7.74181,0.720344 -11.61272,0.492871"
           id="path8087" />
        <path
           style="fill:none;stroke:#000000;stroke-width:0.195809;stroke-miterlimit:4;stroke-dasharray:none"
           d="m 318.93942,41.666905 c -3.45744,2.069739 -7.17039,3.734741 -11.20508,4.890106"
           id="path8089" />
        <path
           style="fill:none;stroke:#000000;stroke-width:0.195809;stroke-miterlimit:4;stroke-dasharray:none"
           d="m 300.73619,38.585621 c 1.93463,3.016615 4.32527,5.621441 6.99815,7.97139"
           id="path8091" />
        <path
           style="fill:none;stroke:#000000;stroke-width:0.195809;stroke-miterlimit:4;stroke-dasharray:none"
           d="m 304.828,37.15487 c 0.67664,3.300215 1.66375,6.423836 2.90634,9.402141"
           id="path8093" />
        <path
           style="fill:none;stroke:#000000;stroke-width:0.195809;stroke-miterlimit:4;stroke-dasharray:none"
           d="m 309.68342,36.904376 c -0.36593,3.401355 -0.96685,6.650491 -1.94908,9.652635"
           id="path8095" />
        <path
           style="fill:none;stroke:#000000;stroke-width:0.195809;stroke-miterlimit:4;stroke-dasharray:none"
           d="m 314.95403,38.274685 c -1.79592,3.202045 -4.19162,5.970674 -7.21969,8.282326"
           id="path8097" />
        <path
           style="fill:none;stroke:#000000;stroke-width:0.195809;stroke-miterlimit:4;stroke-dasharray:none"
           d="m 307.73434,46.557011 c -0.12068,1.892426 -0.25786,3.723304 -0.49956,5.164312"
           id="path8099" />
        <path
           id="path16536"
           style="fill:#ffffff;stroke:#000000;stroke-width:0.195809;stroke-miterlimit:4;stroke-dasharray:none"
           d="m 307.63077,59.953611 c -4.06223,-3.789262 0.0224,-13.133706 0.0224,-13.133706 l -0.42171,-0.191226 c 0,0 -4.22664,9.797163 0.0624,13.588269 z" />
        <rect
           style="fill:#ffffff;stroke:#000000;stroke-width:0.195809;stroke-miterlimit:4;stroke-dasharray:none"
           id="rect6215"
           width="0.78307402"
           height="21.909748"
           x="307.3428"
           y="46.557011" />
        <circle
           style="fill:#ffffff;stroke:#000000;stroke-width:0.195809;stroke-miterlimit:4;stroke-dasharray:none"
           id="path16419"
           cx="307.73865"
           cy="60.718693"
           r="1.0354019" />
      </g>
      <g
         id="g53441"
         inkscape:label="BR Tire"
         style="stroke-width:0.195809;stroke-miterlimit:4;stroke-dasharray:none">
        <path
           style="fill:#999999;stroke:#000000;stroke-width:0.195809;stroke-miterlimit:4;stroke-dasharray:none"
           id="path53245"
           transform="scale(1,-1)"
           d="m 316.04533,-78.283653 a 10.043961,10.043961 0 0 1 -5.02198,8.698325 10.043961,10.043961 0 0 1 -10.04396,0 10.043961,10.043961 0 0 1 -5.02198,-8.698325 h 10.04396 z" />
        <circle
           style="fill:#666666;stroke:#000000;stroke-width:0.195809;stroke-miterlimit:4;stroke-dasharray:none"
           id="circle53333"
           cx="306.00137"
           cy="78.217445"
           r="8.7042685" />
        <circle
           style="fill:#cccccc;stroke:#000000;stroke-width:0.195809;stroke-miterlimit:4;stroke-dasharray:none"
           id="circle53329"
           cx="306.00137"
           cy="78.217445"
           r="5.8239121" />
        <circle
           style="fill:#cccccc;stroke:#000000;stroke-width:0.195809;stroke-miterlimit:4;stroke-dasharray:none"
           id="circle53331"
           cx="306.00137"
           cy="78.217445"
           r="4.7653017" />
      </g>
      <g
         id="g53451"
         inkscape:label="FR Tire"
         transform="translate(48.853088)"
         style="stroke-width:0.195809;stroke-miterlimit:4;stroke-dasharray:none">
        <path
           style="fill:#999999;stroke:#000000;stroke-width:0.195809;stroke-miterlimit:4;stroke-dasharray:none"
           id="path53443"
           transform="scale(1,-1)"
           d="m 316.04533,-78.283653 a 10.043961,10.043961 0 0 1 -5.02198,8.698325 10.043961,10.043961 0 0 1 -10.04396,0 10.043961,10.043961 0 0 1 -5.02198,-8.698325 h 10.04396 z" />
        <circle
           style="fill:#666666;stroke:#000000;stroke-width:0.195809;stroke-miterlimit:4;stroke-dasharray:none"
           id="circle53445"
           cx="306.00137"
           cy="78.217445"
           r="8.7042685" />
        <circle
           style="fill:#cccccc;stroke:#000000;stroke-width:0.195809;stroke-miterlimit:4;stroke-dasharray:none"
           id="circle53447"
           cx="306.00137"
           cy="78.217445"
           r="5.8239121" />
        <circle
           style="fill:#cccccc;stroke:#000000;stroke-width:0.195809;stroke-miterlimit:4;stroke-dasharray:none"
           id="circle53449"
           cx="306.00137"
           cy="78.217445"
           r="4.7653017" />
      </g>
    </g>
    <g
       id="g43987"
       inkscape:label="Flag"
       transform="matrix(0.51119167,0,0,0.51021439,-131.27975,118.07624)"
       style="stroke-width:0.195809;stroke-miterlimit:4;stroke-dasharray:none">
      <rect
         style="fill:#cccccc;stroke:#000000;stroke-width:0.195809;stroke-miterlimit:4;stroke-dasharray:none"
         id="rect43904"
         width="0.75356984"
         height="46.895325"
         x="433.12476"
         y="-45.895264"
         transform="rotate(8.9651061)" />
      <path
         style="fill:#ffffff;stroke:#000000;stroke-width:0.195809;stroke-miterlimit:4;stroke-dasharray:none"
         d="m 435.77477,22.498026 c 0,0 5.54838,3.250951 9.37294,3.250951 3.82457,0 9.25549,2.889695 9.25549,2.889695 -2.60137,4.034187 -4.52467,9.834132 -4.99902,14.092464 0,0 -5.19498,-2.827547 -8.37116,-2.909748 -3.17618,-0.0822 -7.6782,-1.612996 -7.6782,-1.612996 1.66233,-4.507929 2.35479,-9.835563 2.41995,-15.710366 z"
         id="path44022" />
      <g
         inkscape:label="Logo"
         id="layer1-5"
         transform="translate(429.81272,20.69601)"
         style="stroke-width:0.391617;stroke-miterlimit:4;stroke-dasharray:none">
        <path
           style="fill:none;stroke:#000000;stroke-width:0.391617;stroke-miterlimit:4;stroke-dasharray:none"
           d="M 7.6967645,7.2719001 C 8.6745841,10.911843 8.8696537,12.375892 9.2028399,16.103506"
           id="path39" />
        <path
           style="fill:none;stroke:#000000;stroke-width:0.391617;stroke-miterlimit:4;stroke-dasharray:none"
           d="m 6.9984407,8.9036905 c 1.5751768,-0.2148618 3.4970933,-0.6643 4.6462773,0.7589051 3.125139,3.8703204 -4.3557158,7.6197874 -4.3557158,4.5999964 0,-1.511636 3.7866078,-3.550219 4.7577288,-4.23481 3.243898,-2.2867786 1.604987,-5.7006656 1.865871,0.887121 0.0486,1.227167 0.09544,2.442917 0.09544,3.671648"
           id="path43" />
        <path
           style="fill:none;stroke:#000000;stroke-width:0.391617;stroke-miterlimit:4;stroke-dasharray:none"
           d="m 16.748207,7.1772657 c -1.148157,0.6830322 -2.341544,5.8605403 -4.110264,5.8251133 -2.131256,-0.04269 -1.69938,-1.879899 0.212227,-1.673685 0.920902,0.09934 2.615574,1.758119 3.898204,2.33277 1.200717,0.537952 2.360808,0.266169 2.711418,-1.240078"
           id="path45" />
      </g>
    </g>
    <g
       id="g10280"
       inkscape:label="Astronaut"
       transform="matrix(0.51119167,0,0,0.51021439,-131.27975,118.07624)"
       style="stroke-width:0.195809;stroke-miterlimit:4;stroke-dasharray:none">
      <g
         id="g52739"
         inkscape:label="Backpack"
         style="stroke-width:0.195809;stroke-miterlimit:4;stroke-dasharray:none">
        <rect
           style="fill:#ffffff;stroke:#000000;stroke-width:0.195809;stroke-miterlimit:4;stroke-dasharray:none"
           id="rect27043"
           width="12.533555"
           height="22.157667"
           x="409.31589"
           y="25.799486"
           rx="1.9562134"
           ry="1.9599605" />
      </g>
      <g
         id="g52656"
         inkscape:label="Legs"
         style="stroke-width:0.195809;stroke-miterlimit:4;stroke-dasharray:none">
        <path
           style="fill:#ffffff;stroke:#000000;stroke-width:0.195809;stroke-miterlimit:4;stroke-dasharray:none"
           d="m 409.74908,45.56098 c -1.41467,2.585643 -2.27844,5.408128 -2.60315,8.297028 -0.2323,2.06678 -1.13869,3.744439 -1.02558,5.366081 0.0692,0.992344 -0.0932,3.031652 -0.45593,4.461338 -0.32522,1.282041 -1.22944,1.502159 -1.01309,2.761045 0.298,1.734054 4.22985,1.415896 4.76673,-0.551163 0.26925,-0.986485 0.38643,-2.720094 0.94232,-3.304201 0.56406,-0.592662 1.17467,-1.78606 1.44645,-2.598014 0.4286,-1.280445 0.19758,-2.709947 0.60486,-3.997654 0.2573,-0.813499 1.91917,-2.618565 2.68727,-4.820338 -0.12216,2.496487 0.74722,2.235168 0.0838,4.250516 -0.31219,0.948421 0.17531,3.320268 -0.24925,5.110855 -0.57786,2.437163 0.16099,5.441172 1.42953,6.103445 0.81035,0.423067 2.39229,0.941215 3.19971,-0.08934 0.93518,-1.193629 0.40468,-2.018468 0.0538,-2.958875 -0.2084,-0.558555 -0.22803,-1.178359 0.17155,-2.013607 0.56605,-1.183231 0.71199,-4.658037 1.45491,-5.768387 0.77471,-1.157842 0.1986,-7.959829 -0.69836,-9.837965 -2.52751,0.445009 -9.14215,0.638603 -10.79561,-0.41076 z"
           id="path10427" />
        <path
           style="fill:none;stroke:#000000;stroke-width:0.195809;stroke-miterlimit:4;stroke-dasharray:none"
           d="m 413.13919,54.733872 c -0.80833,-1.469914 -2.95817,-1.755992 -4.00124,-2.799054"
           id="path27714" />
        <path
           style="fill:none;stroke:#000000;stroke-width:0.195809;stroke-miterlimit:4;stroke-dasharray:none"
           d="m 406.05593,61.36818 c -0.0151,0.665877 0.59877,1.242904 1.22576,1.40014"
           id="path27724" />
        <path
           style="fill:none;stroke:#000000;stroke-width:0.195809;stroke-miterlimit:4;stroke-dasharray:none"
           d="m 410.17189,62.775575 c -0.41796,0.506857 -1.25227,0.335704 -1.67315,0.154747"
           id="path27726" />
        <path
           style="fill:none;stroke:#000000;stroke-width:0.195809;stroke-miterlimit:4;stroke-dasharray:none"
           d="m 405.10038,64.722705 c 0.81563,-0.558917 1.7694,-0.514736 2.64105,-0.222975"
           id="path27740" />
        <path
           style="fill:none;stroke:#000000;stroke-width:0.195809;stroke-miterlimit:4;stroke-dasharray:none"
           d="m 407.02099,54.226081 c 1.12882,0.315886 3.40363,0.557281 4.26821,1.372118"
           id="path27748" />
        <path
           style="fill:none;stroke:#000000;stroke-width:0.195809;stroke-miterlimit:4;stroke-dasharray:none"
           d="m 406.57935,56.303235 c 0.6505,0.0063 1.89714,-0.213061 2.34199,0.454194 0.36361,0.545444 -0.78719,0.630145 -1.03566,0.557832"
           id="path27750" />
        <path
           style="fill:none;stroke:#000000;stroke-width:0.195809;stroke-miterlimit:4;stroke-dasharray:none"
           d="m 421.54077,53.821933 c -0.74774,1.092856 -1.85565,1.877996 -3.21739,1.877996"
           id="path27752" />
        <path
           style="fill:none;stroke:#000000;stroke-width:0.195809;stroke-miterlimit:4;stroke-dasharray:none"
           d="m 419.74891,61.613057 c -0.79322,1.24787 -1.43817,1.820053 -3.04118,1.285711"
           id="path27754" />
        <path
           style="fill:none;stroke:#000000;stroke-width:0.195809;stroke-miterlimit:4;stroke-dasharray:none"
           d="m 414.87012,61.255629 c 0.0238,0.345829 0.23485,0.674513 0.44911,0.838464"
           id="path27756" />
        <path
           style="fill:none;stroke:#000000;stroke-width:0.195809;stroke-miterlimit:4;stroke-dasharray:none"
           d="m 420.09771,65.309024 c -0.29692,-1.401119 -3.46496,-0.985366 -3.48414,-0.09745"
           id="path27762" />
        <path
           style="fill:none;stroke:#000000;stroke-width:0.195809;stroke-miterlimit:4;stroke-dasharray:none"
           d="m 415.14201,57.536741 c 0.45283,0.542716 2.37654,1.627187 3.0744,0.937926 0.23903,-0.236082 -0.5992,-0.298585 -0.63587,-0.298585"
           id="path27764" />
        <path
           style="fill:none;stroke:#000000;stroke-width:0.195809;stroke-miterlimit:4;stroke-dasharray:none"
           d="m 408.60623,47.928458 c -0.41754,1.754963 2.20711,1.708788 3.26159,2.236015"
           id="path27770" />
        <path
           style="fill:none;stroke:#000000;stroke-width:0.195809;stroke-miterlimit:4;stroke-dasharray:none"
           d="m 421.04513,48.174303 c -0.085,1.506207 -2.12241,2.254205 -3.41673,2.254205"
           id="path27774" />
        <path
           style="fill:none;stroke:#000000;stroke-width:0.195809;stroke-miterlimit:4;stroke-dasharray:none"
           d="m 416.53142,50.67456 c -0.54155,0 -1.06267,0.181073 -1.44617,0.609473 -0.55028,-0.618716 -0.96207,-0.617109 -1.57527,-0.617109"
           id="path27776" />
      </g>
      <g
         id="g52653"
         inkscape:label="Torso"
         style="stroke-width:0.195809;stroke-miterlimit:4;stroke-dasharray:none">
        <path
           style="fill:#ffffff;stroke:#000000;stroke-width:0.195809;stroke-miterlimit:4;stroke-dasharray:none"
           d="m 412.62296,32.780914 c -0.6727,0.0301 -1.29016,-0.03218 -1.74934,0.467847 -0.938,1.021416 -1.97128,3.069033 -1.93908,4.824598 0.0339,1.850135 -0.36575,3.830331 -0.0744,5.394081 0.74824,4.016326 3.23183,4.85712 6.61836,5.014336 2.51727,0.116862 5.51042,-0.823905 6.09276,-4.875162 0.19799,-1.377417 -0.37412,-2.441853 -0.37412,-3.894932 0,-1.886571 0.12783,-4.569976 -0.8232,-5.724847 -1.07706,-1.307913 -7.2562,-0.6417 -7.75092,-1.205921 z"
           id="path10425" />
        <ellipse
           style="fill:#ffffff;stroke:#000000;stroke-width:0.195809;stroke-miterlimit:4;stroke-dasharray:none"
           id="path21417"
           cx="413.69296"
           cy="43.870052"
           rx="0.97809857"
           ry="0.72171265" />
        <path
           style="fill:#ffffff;stroke:#000000;stroke-width:0.195809;stroke-miterlimit:4;stroke-dasharray:none"
           d="m 413.37536,44.018203 c -2.14934,5.571855 -9.05282,1.206874 -4.69269,-1.833849 l 0.0451,-0.607722 c -5.65842,3.246809 2.14444,9.443202 5.22827,2.643806 -0.0705,-0.272133 -0.36587,-0.341957 -0.58068,-0.202235 z"
           id="path37173" />
        <path
           style="fill:#ffffff;stroke:#000000;stroke-width:0.195809;stroke-miterlimit:4;stroke-dasharray:none"
           d="m 412.57085,40.540835 c -1.94259,5.531939 -8.05782,2.088841 -3.69769,-0.951882 l 0.0451,-0.607722 c -5.72718,3.27351 1.44378,8.65904 4.23327,1.761839 -0.0705,-0.272133 -0.36587,-0.341957 -0.58068,-0.202235 z"
           id="path27284" />
        <ellipse
           style="fill:#ffffff;stroke:#000000;stroke-width:0.195809;stroke-miterlimit:4;stroke-dasharray:none"
           id="ellipse21524"
           cx="416.91104"
           cy="44.749599"
           rx="0.97809857"
           ry="0.72171265" />
        <path
           style="fill:#ffffff;stroke:#000000;stroke-width:0.195809;stroke-miterlimit:4;stroke-dasharray:none"
           d="m 417.23251,44.724896 c 2.2648,5.570848 8.72558,0.739316 4.36545,-2.301407 l -0.0451,-0.607722 c 5.96354,3.191733 -2.11154,10.008565 -4.90103,3.111364 0.0705,-0.272133 0.36587,-0.341957 0.58068,-0.202235 z"
           id="path37335" />
        <ellipse
           style="fill:#ffffff;stroke:#000000;stroke-width:0.195809;stroke-miterlimit:4;stroke-dasharray:none"
           id="ellipse21522"
           cx="418.60419"
           cy="42.691711"
           rx="0.97809857"
           ry="0.72171265" />
        <path
           style="fill:#ffffff;stroke:#000000;stroke-width:0.195809;stroke-miterlimit:4;stroke-dasharray:none"
           d="m 418.95376,42.742539 c 2.29602,5.516136 6.81384,0.126272 2.45371,-2.914451 l -0.0451,-0.607722 c 5.96354,3.191733 -0.1998,10.621609 -2.98929,3.724408 0.0705,-0.272133 0.36587,-0.341957 0.58068,-0.202235 z"
           id="path37337" />
        <rect
           style="fill:#ffffff;stroke:#000000;stroke-width:0.195809;stroke-miterlimit:4;stroke-dasharray:none"
           id="rect37361"
           width="6.0761929"
           height="3.4665844"
           x="412.15225"
           y="37.680569"
           rx="0.97810668"
           ry="0.97998023" />
      </g>
      <g
         id="g38009"
         inkscape:label="Helmet"
         transform="translate(-0.49759596,0.02968412)"
         style="stroke-width:0.195809;stroke-miterlimit:4;stroke-dasharray:none">
        <ellipse
           style="fill:#ffffff;stroke:#000000;stroke-width:0.195809;stroke-miterlimit:4;stroke-dasharray:none"
           id="path37858"
           ry="2.3451853"
           rx="3.6337519"
           cy="32.828304"
           cx="415.66049" />
        <path
           id="path10193"
           style="fill:#ffffff;stroke:#000000;stroke-width:0.195809;stroke-miterlimit:4;stroke-dasharray:none"
           d="m 420.29442,29.540501 c 0,2.488054 -2.01697,4.505019 -4.50502,4.505019 -2.48805,0 -4.50502,-2.016965 -4.50502,-4.505019 0,-2.488054 2.01697,-4.50502 4.50502,-4.50502 2.48805,0 4.50502,2.016966 4.50502,4.50502 z" />
        <rect
           style="fill:#000000;stroke-width:0.195809;stroke-miterlimit:4;stroke-dasharray:none"
           id="rect37608"
           height="5.8366895"
           x="412.45682"
           y="26.994652"
           rx="1.9562134"
           ry="1.9599603"
           width="6.565052" />
      </g>
      <g
         id="g52645"
         inkscape:label="Arms"
         style="stroke-width:0.195809;stroke-miterlimit:4;stroke-dasharray:none">
        <path
           style="fill:#ffffff;stroke:#000000;stroke-width:0.195809;stroke-miterlimit:4;stroke-dasharray:none"
           d="m 411.09054,35.573346 c -1.35142,3.121027 -4.30817,2.49508 -6.37063,0.998671 -1.30492,-1.244958 -0.91619,-2.572778 0.21935,-4.391653 1.20245,-1.088998 2.90561,-3.498894 4.33848,-4.488448 1.56237,-1.078987 3.21476,-1.307007 3.41915,-0.34943 0.14926,0.699291 -1.46848,1.332146 -1.64855,1.78277 -0.23214,0.580951 1.58984,-0.420779 1.27512,0.344122 -0.37551,0.912613 -1.2121,0.05453 -1.59414,0.974448 -0.68658,1.653212 -2.19958,2.719766 -1.87816,2.616205 0.90394,-0.291253 1.43587,-0.267511 2.27577,0.03425"
           id="path10423" />
        <path
           style="fill:#ffffff;stroke:#000000;stroke-width:0.195809;stroke-miterlimit:4;stroke-dasharray:none"
           d="m 419.82384,33.742082 c 1.32452,-0.181641 2.36242,0.429037 2.90758,0.97829 1.00476,1.012298 1.96056,2.491845 2.29557,4.838048 0.34136,2.390659 1.19592,3.490519 1.71819,4.650509 0.19991,0.444004 0.19425,2.032306 -0.0542,2.53239 -0.14486,0.291579 -1.59958,3.132745 -2.71646,2.491634 -1.08593,-0.62334 0.72029,-1.208025 0.15741,-2.079481 -0.23831,-0.368951 -0.8768,0.556316 -1.06457,0.653693 -0.28771,0.149185 -0.38607,-0.755534 -0.005,-1.207067 0.71843,-0.852242 0.33568,-1.172148 -0.25255,-2.356095 -0.35525,-0.715014 -0.74197,-2.517443 -1.70056,-3.635156 -0.83751,-0.976538 -1.13891,-2.934305 -0.11987,-4.198267"
           id="path10421" />
        <path
           style="fill:none;stroke:#000000;stroke-width:0.195809;stroke-miterlimit:4;stroke-dasharray:none"
           d="m 426.78264,44.547228 c -0.68,-1.062349 -1.54001,-0.547526 -2.38424,-0.269705"
           id="path27703" />
        <path
           style="fill:none;stroke:#000000;stroke-width:0.195809;stroke-miterlimit:4;stroke-dasharray:none"
           d="m 421.71452,41.446312 c -0.014,-0.957509 0.86617,-1.494137 1.66595,-1.762882"
           id="path27039" />
        <path
           style="fill:none;stroke:#000000;stroke-width:0.195809;stroke-miterlimit:4;stroke-dasharray:none"
           d="m 426.18778,43.028205 c -0.66236,-0.856808 -1.99387,-0.692253 -2.88182,-0.251076"
           id="path27037" />
        <path
           style="fill:none;stroke:#000000;stroke-width:0.195809;stroke-miterlimit:4;stroke-dasharray:none"
           d="m 409.83452,31.875097 c -0.70308,0.399505 -2.5499,-0.378711 -2.79733,-1.121042"
           id="path26209" />
        <path
           style="fill:none;stroke:#000000;stroke-width:0.195809;stroke-miterlimit:4;stroke-dasharray:none"
           d="m 408.8804,32.987813 c 0.80693,1.146307 0.25575,2.550673 0.25575,3.652274"
           id="path26207" />
        <path
           style="fill:none;stroke:#000000;stroke-width:0.195809;stroke-miterlimit:4;stroke-dasharray:none"
           d="m 408.82288,33.029199 c -0.57806,1.679043 -2.50999,1.772269 -3.91879,1.067872"
           id="path26195" />
        <path
           style="fill:none;stroke:#000000;stroke-width:0.195809;stroke-miterlimit:4;stroke-dasharray:none"
           d="m 408.79513,33.145698 c -0.005,1.323618 -0.96713,2.162881 -1.75379,2.949548"
           id="path26189" />
      </g>
    </g>
  </g>
</svg>
