<?xml version="1.0" encoding="UTF-8" standalone="no"?>
<!-- Created with Inkscape (http://www.inkscape.org/) -->

<svg
   width="429.36575"
   height="217.32304"
   viewBox="0 0 116.35812 58.894544"
   version="1.1"
   id="svg11079"
   inkscape:version="1.1.2 (0a00cf5339, 2022-02-04)"
   sodipodi:docname="header-small.svg"
   inkscape:export-filename="/home/dave/code/homepage/public/img/header-small.png"
   inkscape:export-xdpi="95.93"
   inkscape:export-ydpi="95.93"
   xmlns:inkscape="http://www.inkscape.org/namespaces/inkscape"
   xmlns:sodipodi="http://sodipodi.sourceforge.net/DTD/sodipodi-0.dtd"
   xmlns="http://www.w3.org/2000/svg"
   xmlns:svg="http://www.w3.org/2000/svg">
  <sodipodi:namedview
     id="namedview79"
     pagecolor="#000000"
     bordercolor="#666666"
     borderopacity="1.0"
     inkscape:pageshadow="2"
     inkscape:pageopacity="0"
     inkscape:pagecheckerboard="true"
     showgrid="false"
     inkscape:zoom="2.4827318"
     inkscape:cx="214.68287"
     inkscape:cy="108.75117"
     inkscape:window-width="1920"
     inkscape:window-height="1011"
     inkscape:window-x="0"
     inkscape:window-y="32"
     inkscape:window-maximized="1"
     inkscape:current-layer="layer1"
     fit-margin-top="0"
     fit-margin-left="0"
     fit-margin-right="0"
     fit-margin-bottom="0" />
  <defs
     id="defs11076" />
  <g
     inkscape:label="Layer 1"
     inkscape:groupmode="layer"
     id="layer1"
     transform="translate(-49.53296,-111.64802)">
    <g
       id="g2759"
       inkscape:label="Space"
       transform="translate(-81.656446,-758.67179)">
      <g
         id="g18982"
         inkscape:label="Stars">
        <circle
           style="fill:#ffffff;stroke-width:0.270999;paint-order:markers stroke fill"
           id="circle1499"
           cx="143.89149"
           cy="884.91772"
           r="0.21031059"
           inkscape:spray-origin="#path913" />
        <circle
           style="fill:#ffffff;stroke-width:0.271;paint-order:markers stroke fill"
           id="circle1501"
           cx="135.53453"
           cy="890.89807"
           r="0.12628259"
           inkscape:spray-origin="#path913" />
        <circle
           style="fill:#ffffff;stroke-width:0.271001;paint-order:markers stroke fill"
           id="circle1503"
           cx="155.57283"
           cy="887.68896"
           r="0.14778824"
           inkscape:spray-origin="#path913" />
        <circle
           style="fill:#ffffff;stroke-width:0.271001;paint-order:markers stroke fill"
           id="circle1505"
           cx="148.36917"
           cy="875.73883"
           r="0.020761397"
           inkscape:spray-origin="#path913" />
        <circle
           style="fill:#ffffff;stroke-width:0.271;paint-order:markers stroke fill"
           id="circle1507"
           cx="136.50362"
           cy="881.17645"
           r="0.1376214"
           inkscape:spray-origin="#path913" />
        <circle
           style="fill:#ffffff;stroke-width:0.271002;paint-order:markers stroke fill"
           id="circle1509"
           cx="155.25461"
           cy="880.96582"
           r="0.20507494"
           inkscape:spray-origin="#path913" />
        <circle
           style="fill:#ffffff;stroke-width:0.271;paint-order:markers stroke fill"
           id="circle1511"
           cx="141.32076"
           cy="882.00183"
           r="0.20022191"
           inkscape:spray-origin="#path913" />
        <circle
           style="fill:#ffffff;stroke-width:0.270999;paint-order:markers stroke fill"
           id="circle1513"
           cx="149.38643"
           cy="875.27551"
           r="0.16184662"
           inkscape:spray-origin="#path913" />
        <circle
           style="fill:#ffffff;stroke-width:0.271;paint-order:markers stroke fill"
           id="circle1515"
           cx="161.22737"
           cy="872.62567"
           r="0.13505773"
           inkscape:spray-origin="#path913" />
        <circle
           style="fill:#ffffff;stroke-width:0.270999;paint-order:markers stroke fill"
           id="circle1517"
           cx="139.31406"
           cy="886.2417"
           r="0.26001242"
           inkscape:spray-origin="#path913" />
        <circle
           style="fill:#ffffff;stroke-width:0.271;paint-order:markers stroke fill"
           id="circle1519"
           cx="152.731"
           cy="887.77307"
           r="0.30232131"
           inkscape:spray-origin="#path913" />
        <circle
           style="fill:#ffffff;stroke-width:0.271;paint-order:markers stroke fill"
           id="circle1521"
           cx="157.92729"
           cy="883.9386"
           r="0.17528838"
           inkscape:spray-origin="#path913" />
        <circle
           style="fill:#ffffff;stroke-width:0.270999;paint-order:markers stroke fill"
           id="circle1523"
           cx="162.68916"
           cy="878.98657"
           r="0.22588152"
           inkscape:spray-origin="#path913" />
        <circle
           style="fill:#ffffff;stroke-width:0.271002;paint-order:markers stroke fill"
           id="circle1525"
           cx="158.84047"
           cy="881.36664"
           r="0.11557905"
           inkscape:spray-origin="#path913" />
        <circle
           style="fill:#ffffff;stroke-width:0.271;paint-order:markers stroke fill"
           id="circle1527"
           cx="174.37839"
           cy="874.27893"
           r="0.30393466"
           inkscape:spray-origin="#path913" />
        <circle
           style="fill:#ffffff;stroke-width:0.270999;paint-order:markers stroke fill"
           id="circle1529"
           cx="159.71281"
           cy="874.95117"
           r="0.2462914"
           inkscape:spray-origin="#path913" />
        <circle
           style="fill:#ffffff;stroke-width:0.271001;paint-order:markers stroke fill"
           id="circle1531"
           cx="175.33432"
           cy="875.14868"
           r="0.26448324"
           inkscape:spray-origin="#path913" />
        <circle
           style="fill:#ffffff;stroke-width:0.271003;paint-order:markers stroke fill"
           id="circle1533"
           cx="168.70314"
           cy="879.55927"
           r="0.0032994156"
           inkscape:spray-origin="#path913" />
        <circle
           style="fill:#ffffff;stroke-width:0.271;paint-order:markers stroke fill"
           id="circle1535"
           cx="178.34875"
           cy="874.60498"
           r="0.16318673"
           inkscape:spray-origin="#path913" />
        <circle
           style="fill:#ffffff;stroke-width:0.271003;paint-order:markers stroke fill"
           id="circle1537"
           cx="169.91681"
           cy="879.83276"
           r="0.12110759"
           inkscape:spray-origin="#path913" />
        <circle
           style="fill:#ffffff;stroke-width:0.271;paint-order:markers stroke fill"
           id="circle1539"
           cx="175.70599"
           cy="884.42041"
           r="0.17305163"
           inkscape:spray-origin="#path913" />
        <circle
           style="fill:#ffffff;stroke-width:0.270999;paint-order:markers stroke fill"
           id="circle1541"
           cx="166.43576"
           cy="881.60791"
           r="0.17953576"
           inkscape:spray-origin="#path913" />
        <circle
           style="fill:#ffffff;stroke-width:0.270999;paint-order:markers stroke fill"
           id="circle1543"
           cx="165.01268"
           cy="888.44806"
           r="0.33815986"
           inkscape:spray-origin="#path913" />
        <circle
           style="fill:#ffffff;stroke-width:0.270999;paint-order:markers stroke fill"
           id="circle1545"
           cx="169.27744"
           cy="878.50452"
           r="0.29904151"
           inkscape:spray-origin="#path913" />
        <circle
           style="fill:#ffffff;stroke-width:0.271003;paint-order:markers stroke fill"
           id="circle1547"
           cx="170.92334"
           cy="879.42603"
           r="0.11004329"
           inkscape:spray-origin="#path913" />
        <circle
           style="fill:#ffffff;stroke-width:0.270999;paint-order:markers stroke fill"
           id="circle1549"
           cx="169.36292"
           cy="885.53851"
           r="0.15383299"
           inkscape:spray-origin="#path913" />
        <circle
           style="fill:#ffffff;stroke-width:0.271003;paint-order:markers stroke fill"
           id="circle1551"
           cx="177.77779"
           cy="885.62585"
           r="0.12081088"
           inkscape:spray-origin="#path913" />
        <circle
           style="fill:#ffffff;stroke-width:0.271;paint-order:markers stroke fill"
           id="circle1553"
           cx="176.39786"
           cy="892.37183"
           r="0.30340713"
           inkscape:spray-origin="#path913" />
        <circle
           style="fill:#ffffff;stroke-width:0.271001;paint-order:markers stroke fill"
           id="circle1555"
           cx="170.60788"
           cy="883.94745"
           r="0.22128178"
           inkscape:spray-origin="#path913" />
        <circle
           style="fill:#ffffff;stroke-width:0.270999;paint-order:markers stroke fill"
           id="circle1557"
           cx="181.91422"
           cy="876.12891"
           r="0.25566262"
           inkscape:spray-origin="#path913" />
        <circle
           style="fill:#ffffff;stroke-width:0.271;paint-order:markers stroke fill"
           id="circle1559"
           cx="184.78021"
           cy="883.95471"
           r="0.23667255"
           inkscape:spray-origin="#path913" />
        <circle
           style="fill:#ffffff;stroke-width:0.271002;paint-order:markers stroke fill"
           id="circle1561"
           cx="179.9852"
           cy="881.40326"
           r="0.18274118"
           inkscape:spray-origin="#path913" />
        <circle
           style="fill:#ffffff;stroke-width:0.271;paint-order:markers stroke fill"
           id="circle1563"
           cx="180.85423"
           cy="889.96344"
           r="0.16163695"
           inkscape:spray-origin="#path913" />
        <circle
           style="fill:#ffffff;stroke-width:0.270999;paint-order:markers stroke fill"
           id="circle1565"
           cx="189.3501"
           cy="888.97974"
           r="0.12315112"
           inkscape:spray-origin="#path913" />
        <circle
           style="fill:#ffffff;stroke-width:0.271003;paint-order:markers stroke fill"
           id="circle1567"
           cx="191.98347"
           cy="881.44342"
           r="0.23873566"
           inkscape:spray-origin="#path913" />
        <circle
           style="fill:#ffffff;stroke-width:0.271;paint-order:markers stroke fill"
           id="circle1569"
           cx="192.8401"
           cy="890.70801"
           r="0.14390923"
           inkscape:spray-origin="#path913" />
        <circle
           style="fill:#ffffff;stroke-width:0.271002;paint-order:markers stroke fill"
           id="circle1571"
           cx="194.27888"
           cy="888.77783"
           r="0.34875751"
           inkscape:spray-origin="#path913" />
        <circle
           style="fill:#ffffff;stroke-width:0.271001;paint-order:markers stroke fill"
           id="circle1573"
           cx="183.52855"
           cy="882.44812"
           r="0.24318525"
           inkscape:spray-origin="#path913" />
        <circle
           style="fill:#ffffff;stroke-width:0.271003;paint-order:markers stroke fill"
           id="circle1575"
           cx="188.71802"
           cy="881.03735"
           r="0.25269446"
           inkscape:spray-origin="#path913" />
        <circle
           style="fill:#ffffff;stroke-width:0.271001;paint-order:markers stroke fill"
           id="circle1577"
           cx="194.42712"
           cy="896.76398"
           r="0.17723724"
           inkscape:spray-origin="#path913" />
        <circle
           style="fill:#ffffff;stroke-width:0.271002;paint-order:markers stroke fill"
           id="circle1579"
           cx="198.78374"
           cy="883.22253"
           r="0.28436282"
           inkscape:spray-origin="#path913" />
        <circle
           style="fill:#ffffff;stroke-width:0.271;paint-order:markers stroke fill"
           id="circle1581"
           cx="210.04239"
           cy="890.96686"
           r="0.11862308"
           inkscape:spray-origin="#path913" />
        <circle
           style="fill:#ffffff;stroke-width:0.271001;paint-order:markers stroke fill"
           id="circle1583"
           cx="194.14601"
           cy="884.09723"
           r="0.15897597"
           inkscape:spray-origin="#path913" />
        <circle
           style="fill:#ffffff;stroke-width:0.271002;paint-order:markers stroke fill"
           id="circle1585"
           cx="205.10847"
           cy="890.44489"
           r="0.20175162"
           inkscape:spray-origin="#path913" />
        <circle
           style="fill:#ffffff;stroke-width:0.270999;paint-order:markers stroke fill"
           id="circle1587"
           cx="209.0013"
           cy="887.53497"
           r="0.35544273"
           inkscape:spray-origin="#path913" />
        <circle
           style="fill:#ffffff;stroke-width:0.271001;paint-order:markers stroke fill"
           id="circle1589"
           cx="209.46159"
           cy="895.02722"
           r="0.19178712"
           inkscape:spray-origin="#path913" />
        <circle
           style="fill:#ffffff;stroke-width:0.271002;paint-order:markers stroke fill"
           id="circle1591"
           cx="207.96944"
           cy="889.14093"
           r="0.23931968"
           inkscape:spray-origin="#path913" />
        <circle
           style="fill:#ffffff;stroke-width:0.271001;paint-order:markers stroke fill"
           id="circle1593"
           cx="208.60744"
           cy="901.13666"
           r="0.30875432"
           inkscape:spray-origin="#path913" />
        <circle
           style="fill:#ffffff;stroke-width:0.271002;paint-order:markers stroke fill"
           id="circle1595"
           cx="204.71048"
           cy="898.6391"
           r="0.2954492"
           inkscape:spray-origin="#path913" />
        <circle
           style="fill:#ffffff;stroke-width:0.271001;paint-order:markers stroke fill"
           id="circle1597"
           cx="222.59003"
           cy="888.07153"
           r="0.36267763"
           inkscape:spray-origin="#path913" />
        <circle
           style="fill:#ffffff;stroke-width:0.270999;paint-order:markers stroke fill"
           id="circle1599"
           cx="204.41394"
           cy="894.06378"
           r="0.1649715"
           inkscape:spray-origin="#path913" />
        <circle
           style="fill:#ffffff;stroke-width:0.271;paint-order:markers stroke fill"
           id="circle1601"
           cx="219.36899"
           cy="898.47516"
           r="0.12286207"
           inkscape:spray-origin="#path913" />
        <circle
           style="fill:#ffffff;stroke-width:0.271004;paint-order:markers stroke fill"
           id="circle1603"
           cx="216.84088"
           cy="893.98853"
           r="0.28458863"
           inkscape:spray-origin="#path913" />
        <circle
           style="fill:#ffffff;stroke-width:0.270999;paint-order:markers stroke fill"
           id="circle1605"
           cx="218.43889"
           cy="900.70728"
           r="0.45123914"
           inkscape:spray-origin="#path913" />
        <circle
           style="fill:#ffffff;stroke-width:0.271001;paint-order:markers stroke fill"
           id="circle1607"
           cx="218.40413"
           cy="896.00006"
           r="0.16838029"
           inkscape:spray-origin="#path913" />
        <circle
           style="fill:#ffffff;stroke-width:0.271002;paint-order:markers stroke fill"
           id="circle1609"
           cx="234.78087"
           cy="898.98669"
           r="0.32297"
           inkscape:spray-origin="#path913" />
        <circle
           style="fill:#ffffff;stroke-width:0.271002;paint-order:markers stroke fill"
           id="circle1611"
           cx="232.50792"
           cy="891.24536"
           r="0.34007511"
           inkscape:spray-origin="#path913" />
        <circle
           style="fill:#ffffff;stroke-width:0.271;paint-order:markers stroke fill"
           id="circle1613"
           cx="233.90724"
           cy="890.03668"
           r="0.16246299"
           inkscape:spray-origin="#path913" />
        <circle
           style="fill:#ffffff;stroke-width:0.271;paint-order:markers stroke fill"
           id="circle1615"
           cx="233.19116"
           cy="899.81946"
           r="0.42954752"
           inkscape:spray-origin="#path913" />
        <circle
           style="fill:#ffffff;stroke-width:0.271001;paint-order:markers stroke fill"
           id="circle1617"
           cx="237.02718"
           cy="895.95129"
           r="0.22664241"
           inkscape:spray-origin="#path913" />
        <circle
           style="fill:#ffffff;stroke-width:0.271001;paint-order:markers stroke fill"
           id="circle1619"
           cx="241.961"
           cy="896.73816"
           r="0.36254969"
           inkscape:spray-origin="#path913" />
        <circle
           style="fill:#ffffff;stroke-width:0.270999;paint-order:markers stroke fill"
           id="circle1621"
           cx="229.86961"
           cy="892.95099"
           r="0.14720471"
           inkscape:spray-origin="#path913" />
        <circle
           style="fill:#ffffff;stroke-width:0.271001;paint-order:markers stroke fill"
           id="circle1623"
           cx="244.91444"
           cy="890.39117"
           r="0.41073179"
           inkscape:spray-origin="#path913" />
        <circle
           style="fill:#ffffff;stroke-width:0.271003;paint-order:markers stroke fill"
           id="circle1625"
           cx="234.63895"
           cy="888.61359"
           r="0.26411915"
           inkscape:spray-origin="#path913" />
        <circle
           style="fill:#ffffff;stroke-width:0.271002;paint-order:markers stroke fill"
           id="circle1627"
           cx="238.76187"
           cy="894.1568"
           r="0.20077214"
           inkscape:spray-origin="#path913" />
        <path
           style="fill:#ffffff;stroke-width:0.188485"
           id="path2152"
           d="m 216.35457,891.12917 -1.45412,3.02838 2.7735,1.89559 -3.02839,-1.45413 -1.89559,2.77351 1.45412,-3.02839 -2.7735,-1.89559 3.02839,1.45413 z" />
        <path
           style="fill:#ffffff;stroke-width:0.261694"
           id="path2046"
           d="m 150.1745,882.09837 -3.201,-0.67261 0.67261,3.201 -1.01799,-3.10845 -2.43585,2.183 2.18301,-2.43583 -3.10846,-1.01801 3.201,0.67261 -0.67261,-3.201 1.01799,3.10845 2.43585,-2.183 -2.18301,2.43584 z" />
      </g>
      <g
         id="g1533"
         inkscape:label="Galaxy"
         transform="matrix(0.61458229,0.35482925,-0.35482925,0.61458229,304.25916,351.3505)">
        <path
           style="opacity:0.25;fill:#ffffff"
           d="m 266.15594,707.91793 c -6.47256,-0.3112 -13.23191,0.59913 -18.71649,2.55863 -6.59421,2.35595 -10.83989,5.79191 -12.0332,9.75586 -0.59665,1.98198 -0.3578,4.07917 0.73242,5.9961 1.09022,1.91692 2.98842,3.66739 5.68555,5.19921 9.63663,5.47311 27.22578,6.64031 39.27539,2.22071 5.31123,-1.94808 8.7584,-4.77354 9.68555,-8.08399 0.46357,-1.65522 0.22157,-3.40915 -0.72071,-4.99023 -0.94227,-1.58109 -2.54159,-3.00533 -4.79101,-4.24219 -7.8177,-4.29864 -21.7748,-5.18411 -31.24805,-1.56445 -4.03098,1.54021 -6.68379,3.75831 -7.33984,6.41992 -0.32803,1.33081 -0.0816,2.74348 0.71484,3.98633 0.79647,1.24285 2.1032,2.33741 3.90625,3.27734 5.98653,3.12079 16.32433,3.73374 23.2207,0.90039 2.75708,-1.13274 4.62549,-2.75686 4.99805,-4.77929 0.18628,-1.01122 -0.0774,-2.07754 -0.73242,-2.97657 -0.65504,-0.89902 -1.66747,-1.65844 -3.02735,-2.29687 -4.12697,-1.93754 -11.7916,-1.73991 -15.20898,-0.21485 -1.52684,0.68138 -2.50177,1.20225 -3.6733,2.84159 -2.22942,3.11968 3.56906,5.5055 7.68104,4.39673 8.83628,-2.38265 4.65111,-6.22308 -2.19832,-4.93824 7.73795,-4.54206 15.5117,2.95924 6.59087,6.44191 -6.21077,2.42467 -11.53352,1.71057 -16.78896,-1.0291 -1.60083,-0.83451 -2.6367,-1.75416 -3.19727,-2.6289 -0.56056,-0.87474 -0.68658,-1.6831 -0.47656,-2.53516 0.42004,-1.70412 2.48239,-3.70362 6.19727,-5.12304 8.78319,-3.356 22.62282,-2.42736 29.68359,1.45507 2.04503,1.12448 3.3745,2.3622 4.08984,3.5625 0.71535,1.20031 0.85804,2.34741 0.52539,3.53516 -0.6653,2.37551 -3.53454,5.00251 -8.5332,6.83594 -11.3799,4.17396 -28.8498,2.94198 -37.71289,-2.0918 -2.49134,-1.41495 -4.11513,-2.97162 -4.98437,-4.5 -0.86925,-1.52838 -1.02843,-3.01533 -0.57032,-4.53711 0.91624,-3.04356 4.59331,-6.29212 10.87696,-8.53711 13.96821,-4.9905 30.25933,-3.8257 45.74218,2.73047 -11.00715,-6.16846 -21.12604,-6.73116 -27.65265,-7.04496 z"
           id="path16979" />
        <path
           id="path1531"
           style="opacity:0.5;fill:#ffffff"
           d="m 265.90975,726.66714 c 1.9306,-0.53798 5.46361,-2.41647 3.65091,-4.73466 -2.07605,-1.67522 -5.20659,-1.59466 -7.51413,-0.51038 4.13695,-1.71951 9.79177,0.56658 6.51966,3.16932 -4.16136,2.88747 -9.59211,2.54334 -14.30882,1.48625 -2.11014,-0.61502 -4.48526,-2.26575 -4.85197,-4.34461 0.23889,2.9559 3.35488,4.45739 5.92279,5.06376 3.06292,0.55913 6.26094,0.70184 9.33974,0.19037 0.4187,-0.0868 0.83413,-0.19245 1.24182,-0.32 z m 0.24045,-11.80437 c -4.22077,0.22697 -8.67889,0.73398 -12.35184,2.99503 -1.18973,0.79414 -3.05695,2.1493 -2.57693,3.66578 0.26516,-2.4707 2.97101,-3.37426 4.9217,-4.26806 4.12197,-1.68757 8.68074,-1.73946 13.06826,-1.73499 3.25659,0.28232 6.5888,0.99396 9.49158,2.53811 1.48378,0.52166 3.21244,3.15426 3.48712,3.5458 -1.27057,-3.67713 -5.3942,-5.2447 -8.90657,-5.92816 -2.34392,-0.5132 -4.72429,-0.89271 -7.13332,-0.81351 z m 1.47243,17.08144 c 3.76838,-0.9204 7.68548,-2.05338 10.76687,-4.51029 1.39478,-1.29636 2.97427,-3.28072 2.09725,-5.25467 0.55587,2.96599 -2.24107,4.95047 -4.48524,6.2173 -3.44443,1.88408 -7.37322,2.69126 -11.2004,3.39711 -3.35525,0.35999 -6.7684,0.37279 -10.1365,0.22914 -1.15043,0.0158 -4.60996,-0.72748 -4.51857,-0.42665 4.90815,1.37668 10.05038,0.9958 15.06939,0.71359 0.80679,-0.0895 1.61096,-0.21017 2.4072,-0.36553 z m -28.246,-13.52383 c -1.78482,3.1173 0.21534,6.92535 3.08334,8.56636 2.33092,1.34917 4.93787,2.33321 7.60916,2.72085 -1.35247,-0.58859 -3.91653,-1.12602 -5.52909,-2.16688 -2.51108,-1.24234 -5.29375,-3.24091 -5.18817,-6.37994 0.21774,-3.8701 3.69843,-6.3446 6.8632,-7.93045 2.69991,-1.54166 5.70804,-2.34723 8.6449,-3.28688 -5.18059,0.73129 -10.2486,2.96064 -14.0995,6.53628 -0.54319,0.58247 -1.02025,1.23137 -1.38384,1.94066 z m 34.06295,-8.17801 c -4.86074,-0.19179 -9.79401,-0.33055 -14.58958,0.60948 -0.83262,0.13466 -3.5213,0.57094 -3.41617,0.84221 4.07851,-0.70614 8.23131,-1.05071 12.3677,-1.02072 4.57038,0.18648 9.21571,0.15718 13.61162,1.601 3.15267,0.75781 6.09962,2.14531 8.81504,3.90218 -3.8143,-3.50544 -9.09836,-4.54435 -14.01191,-5.5919 -0.92041,-0.15118 -1.84774,-0.26467 -2.7767,-0.34225 z m 13.31619,21.70397 c 2.8433,-2.04767 5.89928,-4.92789 5.9111,-8.69325 -0.12941,-2.47139 -1.85113,-4.56625 -3.77137,-5.936 1.64493,1.61895 3.35952,3.54968 3.23134,6.03484 -0.0379,3.87565 -3.49473,6.40891 -6.3478,8.45944 -3.26551,2.20469 -7.12703,3.30289 -10.82553,4.54134 -1.17885,0.40238 -4.81982,0.9508 -4.66333,1.22937 5.03277,-0.48825 9.7883,-2.34248 14.3595,-4.39679 0.724,-0.37381 1.4299,-0.78504 2.10609,-1.23895 z m -35.41187,4.92897 c 4.86737,0.1608 9.78632,0.34995 14.61392,-0.40242 0.83757,-0.11066 3.58457,-0.40817 3.47112,-0.67824 -5.27347,0.60045 -10.59858,0.85744 -15.89947,0.50477 -3.94686,-0.0183 -7.8521,-0.5866 -11.66656,-1.59043 -2.66127,-0.49893 -5.11279,-1.68783 -7.61796,-2.66289 3.73889,2.45665 8.2036,3.38081 12.53868,4.19641 1.49798,0.34031 3.03185,0.50654 4.56027,0.6328 z" />
      </g>
    </g>
    <g
       id="g1043"
       inkscape:label="Terrain"
       transform="translate(-81.656445,-42.40414)">
      <path
         id="path1305"
         style="fill:none;stroke:#4d4d4d;stroke-width:0.264583;stroke-miterlimit:4;stroke-dasharray:none"
         d="m 247.54582,203.7314 c -7.39808,-0.0953 -13.54372,-1.27244 -18.62966,1.49367 -10.50725,5.71464 -21.70257,-8.50663 -32.6555,-10.62722 -8.50565,-1.64678 -13.83605,-2.04815 -18.35496,-1.97693 -7.53152,0.11871 -12.80893,1.5504 -26.77501,0.71932 -6.65577,-0.39607 -13.36559,1.85596 -19.88674,4.80707" />
      <ellipse
         style="fill:none;stroke:#4d4d4d;stroke-width:0.264584;stroke-miterlimit:4;stroke-dasharray:none"
         id="ellipse12665"
         cx="203.35284"
         cy="202.79143"
         rx="2.6724725"
         ry="1.3248717" />
      <ellipse
         style="fill:none;stroke:#4d4d4d;stroke-width:0.264584;stroke-miterlimit:4;stroke-dasharray:none"
         id="ellipse12775"
         cx="189.93118"
         cy="197.30692"
         rx="2.1615119"
         ry="1.0715642" />
      <ellipse
         style="fill:none;stroke:#4d4d4d;stroke-width:0.264584;stroke-miterlimit:4;stroke-dasharray:none"
         id="ellipse12765"
         cx="180.6321"
         cy="197.58302"
         rx="3.5015278"
         ry="1.7358737" />
      <ellipse
         style="fill:none;stroke:#4d4d4d;stroke-width:0.264584;stroke-miterlimit:4;stroke-dasharray:none"
         id="ellipse12815"
         cx="147.99683"
         cy="195.97096"
         rx="1.5283833"
         ry="0.75769222" />
      <ellipse
         style="fill:none;stroke:#4d4d4d;stroke-width:0.264584;stroke-miterlimit:4;stroke-dasharray:none"
         id="ellipse12805"
         cx="140.14612"
         cy="199.36902"
         rx="1.5283833"
         ry="0.75769222" />
    </g>
    <g
       id="g43987"
       inkscape:label="Flag"
       transform="matrix(0.51119167,0,0,0.51021439,-131.27975,118.07624)"
       style="stroke-width:0.195809;stroke-miterlimit:4;stroke-dasharray:none">
      <rect
         style="fill:#cccccc;stroke:#000000;stroke-width:0.195809;stroke-miterlimit:4;stroke-dasharray:none"
         id="rect43904"
         width="0.75356984"
         height="46.895325"
         x="433.12476"
         y="-45.895264"
         transform="rotate(8.9651061)" />
      <path
         style="fill:#ffffff;stroke:#000000;stroke-width:0.195809;stroke-miterlimit:4;stroke-dasharray:none"
         d="m 435.77477,22.498026 c 0,0 5.54838,3.250951 9.37294,3.250951 3.82457,0 9.25549,2.889695 9.25549,2.889695 -2.60137,4.034187 -4.52467,9.834132 -4.99902,14.092464 0,0 -5.19498,-2.827547 -8.37116,-2.909748 -3.17618,-0.0822 -7.6782,-1.612996 -7.6782,-1.612996 1.66233,-4.507929 2.35479,-9.835563 2.41995,-15.710366 z"
         id="path44022" />
      <g
         inkscape:label="Logo"
         id="layer1-5"
         transform="translate(429.81272,20.69601)"
         style="stroke-width:0.391617;stroke-miterlimit:4;stroke-dasharray:none">
        <path
           style="fill:none;stroke:#000000;stroke-width:0.391617;stroke-miterlimit:4;stroke-dasharray:none"
           d="M 7.6967645,7.2719001 C 8.6745841,10.911843 8.8696537,12.375892 9.2028399,16.103506"
           id="path39" />
        <path
           style="fill:none;stroke:#000000;stroke-width:0.391617;stroke-miterlimit:4;stroke-dasharray:none"
           d="m 6.9984407,8.9036905 c 1.5751768,-0.2148618 3.4970933,-0.6643 4.6462773,0.7589051 3.125139,3.8703204 -4.3557158,7.6197874 -4.3557158,4.5999964 0,-1.511636 3.7866078,-3.550219 4.7577288,-4.23481 3.243898,-2.2867786 1.604987,-5.7006656 1.865871,0.887121 0.0486,1.227167 0.09544,2.442917 0.09544,3.671648"
           id="path43" />
        <path
           style="fill:none;stroke:#000000;stroke-width:0.391617;stroke-miterlimit:4;stroke-dasharray:none"
           d="m 16.748207,7.1772657 c -1.148157,0.6830322 -2.341544,5.8605403 -4.110264,5.8251133 -2.131256,-0.04269 -1.69938,-1.879899 0.212227,-1.673685 0.920902,0.09934 2.615574,1.758119 3.898204,2.33277 1.200717,0.537952 2.360808,0.266169 2.711418,-1.240078"
           id="path45" />
      </g>
    </g>
    <g
       id="g10280"
       inkscape:label="Astronaut"
       transform="matrix(0.51119167,0,0,0.51021439,-131.27975,118.07624)"
       style="stroke-width:0.195809;stroke-miterlimit:4;stroke-dasharray:none">
      <g
         id="g52739"
         inkscape:label="Backpack"
         style="stroke-width:0.195809;stroke-miterlimit:4;stroke-dasharray:none">
        <rect
           style="fill:#ffffff;stroke:#000000;stroke-width:0.195809;stroke-miterlimit:4;stroke-dasharray:none"
           id="rect27043"
           width="12.533555"
           height="22.157667"
           x="409.31589"
           y="25.799486"
           rx="1.9562134"
           ry="1.9599605" />
      </g>
      <g
         id="g52656"
         inkscape:label="Legs"
         style="stroke-width:0.195809;stroke-miterlimit:4;stroke-dasharray:none">
        <path
           style="fill:#ffffff;stroke:#000000;stroke-width:0.195809;stroke-miterlimit:4;stroke-dasharray:none"
           d="m 409.74908,45.56098 c -1.41467,2.585643 -2.27844,5.408128 -2.60315,8.297028 -0.2323,2.06678 -1.13869,3.744439 -1.02558,5.366081 0.0692,0.992344 -0.0932,3.031652 -0.45593,4.461338 -0.32522,1.282041 -1.22944,1.502159 -1.01309,2.761045 0.298,1.734054 4.22985,1.415896 4.76673,-0.551163 0.26925,-0.986485 0.38643,-2.720094 0.94232,-3.304201 0.56406,-0.592662 1.17467,-1.78606 1.44645,-2.598014 0.4286,-1.280445 0.19758,-2.709947 0.60486,-3.997654 0.2573,-0.813499 1.91917,-2.618565 2.68727,-4.820338 -0.12216,2.496487 0.74722,2.235168 0.0838,4.250516 -0.31219,0.948421 0.17531,3.320268 -0.24925,5.110855 -0.57786,2.437163 0.16099,5.441172 1.42953,6.103445 0.81035,0.423067 2.39229,0.941215 3.19971,-0.08934 0.93518,-1.193629 0.40468,-2.018468 0.0538,-2.958875 -0.2084,-0.558555 -0.22803,-1.178359 0.17155,-2.013607 0.56605,-1.183231 0.71199,-4.658037 1.45491,-5.768387 0.77471,-1.157842 0.1986,-7.959829 -0.69836,-9.837965 -2.52751,0.445009 -9.14215,0.638603 -10.79561,-0.41076 z"
           id="path10427" />
        <path
           style="fill:none;stroke:#000000;stroke-width:0.195809;stroke-miterlimit:4;stroke-dasharray:none"
           d="m 413.13919,54.733872 c -0.80833,-1.469914 -2.95817,-1.755992 -4.00124,-2.799054"
           id="path27714" />
        <path
           style="fill:none;stroke:#000000;stroke-width:0.195809;stroke-miterlimit:4;stroke-dasharray:none"
           d="m 406.05593,61.36818 c -0.0151,0.665877 0.59877,1.242904 1.22576,1.40014"
           id="path27724" />
        <path
           style="fill:none;stroke:#000000;stroke-width:0.195809;stroke-miterlimit:4;stroke-dasharray:none"
           d="m 410.17189,62.775575 c -0.41796,0.506857 -1.25227,0.335704 -1.67315,0.154747"
           id="path27726" />
        <path
           style="fill:none;stroke:#000000;stroke-width:0.195809;stroke-miterlimit:4;stroke-dasharray:none"
           d="m 405.10038,64.722705 c 0.81563,-0.558917 1.7694,-0.514736 2.64105,-0.222975"
           id="path27740" />
        <path
           style="fill:none;stroke:#000000;stroke-width:0.195809;stroke-miterlimit:4;stroke-dasharray:none"
           d="m 407.02099,54.226081 c 1.12882,0.315886 3.40363,0.557281 4.26821,1.372118"
           id="path27748" />
        <path
           style="fill:none;stroke:#000000;stroke-width:0.195809;stroke-miterlimit:4;stroke-dasharray:none"
           d="m 406.57935,56.303235 c 0.6505,0.0063 1.89714,-0.213061 2.34199,0.454194 0.36361,0.545444 -0.78719,0.630145 -1.03566,0.557832"
           id="path27750" />
        <path
           style="fill:none;stroke:#000000;stroke-width:0.195809;stroke-miterlimit:4;stroke-dasharray:none"
           d="m 421.54077,53.821933 c -0.74774,1.092856 -1.85565,1.877996 -3.21739,1.877996"
           id="path27752" />
        <path
           style="fill:none;stroke:#000000;stroke-width:0.195809;stroke-miterlimit:4;stroke-dasharray:none"
           d="m 419.74891,61.613057 c -0.79322,1.24787 -1.43817,1.820053 -3.04118,1.285711"
           id="path27754" />
        <path
           style="fill:none;stroke:#000000;stroke-width:0.195809;stroke-miterlimit:4;stroke-dasharray:none"
           d="m 414.87012,61.255629 c 0.0238,0.345829 0.23485,0.674513 0.44911,0.838464"
           id="path27756" />
        <path
           style="fill:none;stroke:#000000;stroke-width:0.195809;stroke-miterlimit:4;stroke-dasharray:none"
           d="m 420.09771,65.309024 c -0.29692,-1.401119 -3.46496,-0.985366 -3.48414,-0.09745"
           id="path27762" />
        <path
           style="fill:none;stroke:#000000;stroke-width:0.195809;stroke-miterlimit:4;stroke-dasharray:none"
           d="m 415.14201,57.536741 c 0.45283,0.542716 2.37654,1.627187 3.0744,0.937926 0.23903,-0.236082 -0.5992,-0.298585 -0.63587,-0.298585"
           id="path27764" />
        <path
           style="fill:none;stroke:#000000;stroke-width:0.195809;stroke-miterlimit:4;stroke-dasharray:none"
           d="m 408.60623,47.928458 c -0.41754,1.754963 2.20711,1.708788 3.26159,2.236015"
           id="path27770" />
        <path
           style="fill:none;stroke:#000000;stroke-width:0.195809;stroke-miterlimit:4;stroke-dasharray:none"
           d="m 421.04513,48.174303 c -0.085,1.506207 -2.12241,2.254205 -3.41673,2.254205"
           id="path27774" />
        <path
           style="fill:none;stroke:#000000;stroke-width:0.195809;stroke-miterlimit:4;stroke-dasharray:none"
           d="m 416.53142,50.67456 c -0.54155,0 -1.06267,0.181073 -1.44617,0.609473 -0.55028,-0.618716 -0.96207,-0.617109 -1.57527,-0.617109"
           id="path27776" />
      </g>
      <g
         id="g52653"
         inkscape:label="Torso"
         style="stroke-width:0.195809;stroke-miterlimit:4;stroke-dasharray:none">
        <path
           style="fill:#ffffff;stroke:#000000;stroke-width:0.195809;stroke-miterlimit:4;stroke-dasharray:none"
           d="m 412.62296,32.780914 c -0.6727,0.0301 -1.29016,-0.03218 -1.74934,0.467847 -0.938,1.021416 -1.97128,3.069033 -1.93908,4.824598 0.0339,1.850135 -0.36575,3.830331 -0.0744,5.394081 0.74824,4.016326 3.23183,4.85712 6.61836,5.014336 2.51727,0.116862 5.51042,-0.823905 6.09276,-4.875162 0.19799,-1.377417 -0.37412,-2.441853 -0.37412,-3.894932 0,-1.886571 0.12783,-4.569976 -0.8232,-5.724847 -1.07706,-1.307913 -7.2562,-0.6417 -7.75092,-1.205921 z"
           id="path10425" />
        <ellipse
           style="fill:#ffffff;stroke:#000000;stroke-width:0.195809;stroke-miterlimit:4;stroke-dasharray:none"
           id="path21417"
           cx="413.69296"
           cy="43.870052"
           rx="0.97809857"
           ry="0.72171265" />
        <path
           style="fill:#ffffff;stroke:#000000;stroke-width:0.195809;stroke-miterlimit:4;stroke-dasharray:none"
           d="m 413.37536,44.018203 c -2.14934,5.571855 -9.05282,1.206874 -4.69269,-1.833849 l 0.0451,-0.607722 c -5.65842,3.246809 2.14444,9.443202 5.22827,2.643806 -0.0705,-0.272133 -0.36587,-0.341957 -0.58068,-0.202235 z"
           id="path37173" />
        <path
           style="fill:#ffffff;stroke:#000000;stroke-width:0.195809;stroke-miterlimit:4;stroke-dasharray:none"
           d="m 412.57085,40.540835 c -1.94259,5.531939 -8.05782,2.088841 -3.69769,-0.951882 l 0.0451,-0.607722 c -5.72718,3.27351 1.44378,8.65904 4.23327,1.761839 -0.0705,-0.272133 -0.36587,-0.341957 -0.58068,-0.202235 z"
           id="path27284" />
        <ellipse
           style="fill:#ffffff;stroke:#000000;stroke-width:0.195809;stroke-miterlimit:4;stroke-dasharray:none"
           id="ellipse21524"
           cx="416.91104"
           cy="44.749599"
           rx="0.97809857"
           ry="0.72171265" />
        <path
           style="fill:#ffffff;stroke:#000000;stroke-width:0.195809;stroke-miterlimit:4;stroke-dasharray:none"
           d="m 417.23251,44.724896 c 2.2648,5.570848 8.72558,0.739316 4.36545,-2.301407 l -0.0451,-0.607722 c 5.96354,3.191733 -2.11154,10.008565 -4.90103,3.111364 0.0705,-0.272133 0.36587,-0.341957 0.58068,-0.202235 z"
           id="path37335" />
        <ellipse
           style="fill:#ffffff;stroke:#000000;stroke-width:0.195809;stroke-miterlimit:4;stroke-dasharray:none"
           id="ellipse21522"
           cx="418.60419"
           cy="42.691711"
           rx="0.97809857"
           ry="0.72171265" />
        <path
           style="fill:#ffffff;stroke:#000000;stroke-width:0.195809;stroke-miterlimit:4;stroke-dasharray:none"
           d="m 418.95376,42.742539 c 2.29602,5.516136 6.81384,0.126272 2.45371,-2.914451 l -0.0451,-0.607722 c 5.96354,3.191733 -0.1998,10.621609 -2.98929,3.724408 0.0705,-0.272133 0.36587,-0.341957 0.58068,-0.202235 z"
           id="path37337" />
        <rect
           style="fill:#ffffff;stroke:#000000;stroke-width:0.195809;stroke-miterlimit:4;stroke-dasharray:none"
           id="rect37361"
           width="6.0761929"
           height="3.4665844"
           x="412.15225"
           y="37.680569"
           rx="0.97810668"
           ry="0.97998023" />
      </g>
      <g
         id="g38009"
         inkscape:label="Helmet"
         transform="translate(-0.49759596,0.02968412)"
         style="stroke-width:0.195809;stroke-miterlimit:4;stroke-dasharray:none">
        <ellipse
           style="fill:#ffffff;stroke:#000000;stroke-width:0.195809;stroke-miterlimit:4;stroke-dasharray:none"
           id="path37858"
           ry="2.3451853"
           rx="3.6337519"
           cy="32.828304"
           cx="415.66049" />
        <path
           id="path10193"
           style="fill:#ffffff;stroke:#000000;stroke-width:0.195809;stroke-miterlimit:4;stroke-dasharray:none"
           d="m 420.29442,29.540501 c 0,2.488054 -2.01697,4.505019 -4.50502,4.505019 -2.48805,0 -4.50502,-2.016965 -4.50502,-4.505019 0,-2.488054 2.01697,-4.50502 4.50502,-4.50502 2.48805,0 4.50502,2.016966 4.50502,4.50502 z" />
        <rect
           style="fill:#000000;stroke-width:0.195809;stroke-miterlimit:4;stroke-dasharray:none"
           id="rect37608"
           height="5.8366895"
           x="412.45682"
           y="26.994652"
           rx="1.9562134"
           ry="1.9599603"
           width="6.565052" />
      </g>
      <g
         id="g52645"
         inkscape:label="Arms"
         style="stroke-width:0.195809;stroke-miterlimit:4;stroke-dasharray:none">
        <path
           style="fill:#ffffff;stroke:#000000;stroke-width:0.195809;stroke-miterlimit:4;stroke-dasharray:none"
           d="m 411.09054,35.573346 c -1.35142,3.121027 -4.30817,2.49508 -6.37063,0.998671 -1.30492,-1.244958 -0.91619,-2.572778 0.21935,-4.391653 1.20245,-1.088998 2.90561,-3.498894 4.33848,-4.488448 1.56237,-1.078987 3.21476,-1.307007 3.41915,-0.34943 0.14926,0.699291 -1.46848,1.332146 -1.64855,1.78277 -0.23214,0.580951 1.58984,-0.420779 1.27512,0.344122 -0.37551,0.912613 -1.2121,0.05453 -1.59414,0.974448 -0.68658,1.653212 -2.19958,2.719766 -1.87816,2.616205 0.90394,-0.291253 1.43587,-0.267511 2.27577,0.03425"
           id="path10423" />
        <path
           style="fill:#ffffff;stroke:#000000;stroke-width:0.195809;stroke-miterlimit:4;stroke-dasharray:none"
           d="m 419.82384,33.742082 c 1.32452,-0.181641 2.36242,0.429037 2.90758,0.97829 1.00476,1.012298 1.96056,2.491845 2.29557,4.838048 0.34136,2.390659 1.19592,3.490519 1.71819,4.650509 0.19991,0.444004 0.19425,2.032306 -0.0542,2.53239 -0.14486,0.291579 -1.59958,3.132745 -2.71646,2.491634 -1.08593,-0.62334 0.72029,-1.208025 0.15741,-2.079481 -0.23831,-0.368951 -0.8768,0.556316 -1.06457,0.653693 -0.28771,0.149185 -0.38607,-0.755534 -0.005,-1.207067 0.71843,-0.852242 0.33568,-1.172148 -0.25255,-2.356095 -0.35525,-0.715014 -0.74197,-2.517443 -1.70056,-3.635156 -0.83751,-0.976538 -1.13891,-2.934305 -0.11987,-4.198267"
           id="path10421" />
        <path
           style="fill:none;stroke:#000000;stroke-width:0.195809;stroke-miterlimit:4;stroke-dasharray:none"
           d="m 426.78264,44.547228 c -0.68,-1.062349 -1.54001,-0.547526 -2.38424,-0.269705"
           id="path27703" />
        <path
           style="fill:none;stroke:#000000;stroke-width:0.195809;stroke-miterlimit:4;stroke-dasharray:none"
           d="m 421.71452,41.446312 c -0.014,-0.957509 0.86617,-1.494137 1.66595,-1.762882"
           id="path27039" />
        <path
           style="fill:none;stroke:#000000;stroke-width:0.195809;stroke-miterlimit:4;stroke-dasharray:none"
           d="m 426.18778,43.028205 c -0.66236,-0.856808 -1.99387,-0.692253 -2.88182,-0.251076"
           id="path27037" />
        <path
           style="fill:none;stroke:#000000;stroke-width:0.195809;stroke-miterlimit:4;stroke-dasharray:none"
           d="m 409.83452,31.875097 c -0.70308,0.399505 -2.5499,-0.378711 -2.79733,-1.121042"
           id="path26209" />
        <path
           style="fill:none;stroke:#000000;stroke-width:0.195809;stroke-miterlimit:4;stroke-dasharray:none"
           d="m 408.8804,32.987813 c 0.80693,1.146307 0.25575,2.550673 0.25575,3.652274"
           id="path26207" />
        <path
           style="fill:none;stroke:#000000;stroke-width:0.195809;stroke-miterlimit:4;stroke-dasharray:none"
           d="m 408.82288,33.029199 c -0.57806,1.679043 -2.50999,1.772269 -3.91879,1.067872"
           id="path26195" />
        <path
           style="fill:none;stroke:#000000;stroke-width:0.195809;stroke-miterlimit:4;stroke-dasharray:none"
           d="m 408.79513,33.145698 c -0.005,1.323618 -0.96713,2.162881 -1.75379,2.949548"
           id="path26189" />
      </g>
    </g>
  </g>
</svg>
