<svg xmlns="http://www.w3.org/2000/svg" width="24" height="24" viewBox="0 0 720 720" fill="#e8eaed"><path d="M 613.664,613.645 H 505.422 V 425.828 c 0,-55.418 -23.559,-72.508 -53.945,-72.508 -32.114,0 -63.61,24.176 -63.61,73.891 V 613.645 H 279.625 V 269.773 h 104.102 v 47.641 h 1.378 c 10.473,-21.168 47.036,-57.309 102.883,-57.309 60.403,0 125.676,35.829 125.676,140.864 z M 160.48,221.863 c -34.468,0 -62.4058,-26.23 -62.4058,-62.129 0,-35.898 27.9378,-62.164 62.4058,-62.164 34.461,0 62.407,26.266 62.407,62.164 0,35.899 -27.946,62.129 -62.407,62.129 z m 54.122,391.52 H 106.359 V 269.508 H 214.602 Z M 666.871,0 H 53.1523 C 23.7969,0 0,23.797 0,53.152 V 666.8516 C 0,696.2031 23.7969,720 53.1523,720 H 666.871 c 29.352,0 53.149,-23.7969 53.149,-53.1484 V 53.152 C 720.02,23.797 696.223,0 666.871,0"/></svg>
